<?xml version="1.0" encoding="utf8" standalone="no"?>
<svg viewBox="0 0 201.91922 253.08958" xmlns="http://www.w3.org/2000/svg" xmlns:xlink="http://www.w3.org/1999/xlink">
<defs>
<filter id="filter5620">
<feGaussianBlur stdDeviation=".21582"/>
</filter>
<filter height="1.46578" id="filter3719" width="1.07182" x="-.03591" y="-.23289">
<feGaussianBlur stdDeviation="1.20077"/>
</filter>
<linearGradient id="linearGradient5523">
<stop offset="0" stop-color="#fff"/>
<stop offset="1" stop-color="#fff" stop-opacity="0"/>
</linearGradient>
<linearGradient id="linearGradient5424">
<stop offset="0" stop-color="#a58755"/>
<stop offset=".16231" stop-color="#c4a000"/>
<stop offset=".39676" stop-color="#8b7200"/>
<stop offset=".6763" stop-color="#c4a000"/>
<stop offset="1" stop-color="#7e664e"/>
</linearGradient>
<linearGradient gradientUnits="userSpaceOnUse" id="linearGradient2899" x2="0" y1="202.08429" y2="357.78947">
<stop offset="0" stop-color="#eaf0f4"/>
<stop offset="1" stop-color="#fdfefe"/>
</linearGradient>
<linearGradient gradientUnits="userSpaceOnUse" id="linearGradient2918" x1="162.29036" x2="179.78383" y1="149.38402" y2="356.59443">
<stop offset="0" stop-color="#d3d7cf"/>
<stop offset="1" stop-color="#ebebeb"/>
</linearGradient>
<linearGradient gradientUnits="userSpaceOnUse" id="linearGradient5592" x2="0" y1="515.60386" y2="528.46031">
<stop offset="0" stop-color="#163057"/>
<stop offset=".225" stop-color="#eeeeec"/>
<stop offset=".45" stop-color="#213f66"/>
<stop offset="1" stop-color="#204a87" stop-opacity="0"/>
</linearGradient>
<linearGradient gradientUnits="userSpaceOnUse" id="linearGradient5596" x2="0" y1="505.49544" y2="525.41271">
<stop offset="0" stop-color="#a58755"/>
<stop offset=".16231" stop-color="#c4a000"/>
<stop offset=".39676" stop-color="#8b7200"/>
<stop offset=".6763" stop-color="#edd400"/>
<stop offset="1" stop-color="#7e664e"/>
</linearGradient>
<linearGradient gradientUnits="userSpaceOnUse" id="linearGradient5600" x2="0" y1="445.92445" y2="497.73256">
<stop offset="0" stop-color="#d3d7cf"/>
<stop offset=".13649" stop-color="#eeeeec"/>
<stop offset=".28662" stop-color="#babdb6"/>
<stop offset=".43675" stop-color="#eeeeec"/>
<stop offset="1" stop-color="#d3d7cf" stop-opacity="0"/>
</linearGradient>
<linearGradient gradientUnits="userSpaceOnUse" id="linearGradient5614" x1="200.81833" x2="218.9827" y1="172.36778" y2="110.20015">
<stop offset="0" stop-color="#d8dbd4"/>
<stop offset="1" stop-color="#babdb6" stop-opacity="0"/>
</linearGradient>
<linearGradient gradientUnits="userSpaceOnUse" id="linearGradient5594" x2="0" xlink:href="#linearGradient5424" y1="502.95469" y2="526.21542"/>
<linearGradient gradientUnits="userSpaceOnUse" id="linearGradient5598" x2="0" xlink:href="#linearGradient5424" y1="502.11218" y2="527.0993"/>
<linearGradient gradientUnits="userSpaceOnUse" id="linearGradient5602" x2="0" xlink:href="#linearGradient5523" y1="448.89417" y2="459.14722"/>
<linearGradient gradientUnits="userSpaceOnUse" id="linearGradient5604" x2="0" xlink:href="#linearGradient5523" y1="471.7538" y2="461.50075"/>
</defs>
<g transform="translate(-160.68635,-97.09008)">
<path d="m175.63025,201.78379-10.77082-5.84619 71.06424-7.77818 7.44238,1.13909-67.7358,12.48528z" fill="#d3d7cf" filter="url(#filter3719)" transform="matrix(2.37422,0,0,2.37139,-222.04115,-135.16225)"/>
<path d="m165.4811,109.85885 158.28942-11.97732c-9.5933,150.91429 30.98537,213.48529 30.98537,213.48529l-159.48859,27.45154c0,0-42.977-66.06788-29.7862-228.95951z" fill="url(#linearGradient2899)"/>
<path d="m163.11948,109.89586c-13.19079,162.89162 31.55069,226.46953 31.55069,226.46953l4.21112,6.00071c0,0-45.87674-70.56313-32.89823-232.91487l-2.86358.44463z" fill="url(#linearGradient2918)"/>
<path d="m309.33898,142.14209-71.74595,5.33561 .96452,12.5239 70.55886-5.33561c.0321-4.10324.11631-8.29315.22246-12.5239z" fill="none" stroke="#dde2e0" stroke-width=".86571"/>
<path d="m308.59705,164.44796-73.37825,6.299 1.11291,12.4498 73.00727-6.299c-.0382-1.57783-.0467-3.14358-.0741-4.74279l-.66774-7.70701z" fill="none" stroke="#dde2e0" stroke-width=".86571"/>
<path d="m222.86565,226.4901h10.495v10.47793h-10.495z" fill="none" stroke="#dde2e0" stroke-width=".86571" transform="matrix(.99447,-.10502,.10527,.99444,0,0)"/>
<path d="m312.23256,223.65859-69.8911,7.41059c-2.83182,1.41422 5.04522,47.57601 5.04522,47.57601l71.52338-7.55882c-2.63277-13.94267-4.93552-29.74195-6.6775-47.42778z" fill="none" stroke="#dde2e0" stroke-width=".86571"/>
<path d="m249.43895,226.4901h10.495v10.47793h-10.495z" fill="none" stroke="#dde2e0" stroke-width=".86571" transform="matrix(.99447,-.10502,.10527,.99444,0,0)"/>
<path d="m276.01224,226.4901h10.495v10.47793h-10.495z" fill="none" stroke="#dde2e0" stroke-width=".86571" transform="matrix(.99447,-.10502,.10527,.99444,0,0)"/>
<path d="m187.69486,147.68097c-1.25004,2.84431 2.66225-.68512 0,0zm25.89387-1.85761c-1.16947,2.69343 2.66689-.6701 0,0zm-34.76331,2.86585c.18163,3.4604-.49576,8.21262 3.0761,10.18296 4.19861.38059 8.50561-.61491 12.75494-.6851 11.77934-.85692 23.55991-1.69727 35.3401-2.54237 2.86728-3.4137-4.2601-11.86116-5.32668-5.49522-.13912,2.11334-2.73161,3.18723-1.94021.18166-2.18265-4.43297-7.82961.73593-6.50665,3.36717-1.67123-.54036-1.9586-5.68974-2.09012-1.47685-1.21462,4.12731-6.30842-1.55242-3.35618-3.50076-3.79979-1.5298.96188,7.12313-4.08944,5.80708-2.95595-.49837-3.73957-5.24257-.24562-5.55733-4.37974-1.01514-3.08354,9.17752-8.06102,5.44163 .81268-1.93142 3.83726-5.05689-.66213-4.88918-3.22527.25969-1.58462,9.47039-5.5188,4.70263 .16003-1.44633 1.01924-6.05487-.54162-2.25252-.35742,3.39878-2.41625,2.92136-3.02277.80751 .37098,1.91828-2.71943,5.48793-2.77104,2.32479 2.4202-4.17172-3.23282-8.61071-7.03876-6.41667zm1.23339.86797c5.38829-3.73961 5.50085,9.81457.42911,5.31235-.63354-1.71362 0-3.56746-.42911-5.31235zm18.35263.59558c2.62854,1.92756-4.00923.51727-5e-005,0h5e-005zm21.07512-1.51193c5.14251.25261-2.60685,6.98258-1.62086,1.7214 .11158-.81031.68494-1.75782 1.62086-1.7214zm7.46637-.53562c5.23409.31286-2.1291,7.97744-1.69374,2.29019 .0191-.95458.4931-2.40641 1.69374-2.29019z" fill="#d3d7cf"/>
<path d="m177.14381,204.53882c-.0406,3.21624-5.14384,10.10902.6768,10.44604 5.94977-.40873 11.83109-1.49668 17.77417-2.00445 14.44815-1.70946 28.93832-3.03226 43.39841-4.63331-2.7663-1.58136-.82836-7.27022-4.08712-7.65944 .42819,1.52869.11631,6.34975-1.42829,2.57322-2.09545-3.9339-7.62081-.2429-5.62649,3.27842-1.90244,2.51625-7.06934-.23406-2.84951-2.05516 .63823-4.46844-7.015-1.70008-5.01122,1.79542-2.10501-1.48947-3.77024-5.4241-7.47539-3.87703-3.3313.92088-3.50887,10.13882-7.52962,5.90706-.1156-1.62988 3.70647-2.9021.53815-4.14336-2.99147-.45056-5.26012,2.76622-3.55632,5.14731-1.26257,2.81133-6.69625-1.48629-2.36286-1.94788 1.13914-4.77617-7.69983-1.58535-4.51633,1.95362-1.88689,3.15091-4.87453-1.78161-3.07917-3.27786-1.59788-.15745-1.6153,6.55836-2.96491,2.36077-1.2519-4.39253-7.41739-2.17136-6.55434,1.87508-2.66029,1.72073-2.072-6.58639-5.34591-5.73843zm.75073,1.03993 2.03022,4.04936c-2.61215,2.17102-3.26199-2.62544-2.03022-4.04936zm7.62262.90048c5.0696.0166-2.24414,6.99451-1.53009,1.77355 .0594-.81188.59766-1.78285 1.53009-1.77355zm12.20116-1.23534c2.69202,1.83812-3.98949.65165-4e-005,0h4e-005zm7.07452-.74714c2.79524,1.57477-3.91447.89639-.0001,0h.0001zm7.23289-.76387c4.98791.8628-2.40805,6.88393-1.63519,1.71857 .1897-.77462.72561-1.71264 1.63519-1.71857zm4.11802-.43486c4.97292.97176-2.54179,6.84297-1.67855,1.68257 .20252-.77324.76412-1.70821 1.67855-1.68257zm7.07448-.74714c2.69202,1.83814-3.98952.65167-2e-005,0h2e-005zm7.28568-.76942c5.05585.21722-1.83606,7.61662-1.70232,2.34962 .0321-.96059.45348-2.49965 1.70232-2.34962zm-53.96318,9.16332c2.48216-2.57958 3.84128,3.88962.36297,1.59046-.74633-.0791-1.1693-1.28603-.36297-1.59046zm11.25131-.12238c.58252.65944-.95956-.009 0,0z" fill="#d3d7cf"/>
<path d="m231.347,228.45675c-1.15359,2.88472 2.63761-.77415 0,0zm3.22046-.34011 .93181,8.80218c-2.61186,1.44777-2.93608-6.00745-3.58709-1.3212-2.52957,1.16003-2.95337-7.0122-5.73758-3.41326 3.15219,1.23592-3.95902,7.69686-3.42307,2.43612-2.31524-4.66781-10.77699-2.62233-9.29065,2.92414-.81251,3.85897-7.42609.29474-2.97853-1.24754 2.17229-4.54391-6.5071-2.64524-4.57566,1.45579 1.29838,5.79559-9.05396,2.54268-7.09499-2.30408-.84805-2.03826-.93888,4.38097-2.09465,4.16503-1.16284-1.50633-1.85861-4.15235-1.97942-.67914-2.17746,3.07522-5.1582-4.48963-3.72842-.29191 .53726,2.73833-3.38948,4.59559-1.69947.84428-.50825-4.93626-8.42359-3.32442-6.02762,1.45115-1.88473,3.16277-4.2641-2.89037-1.51406-4.09072 .24143-1.32978-5.58546-1.04595-3.18227.41979 .62703,3.91136 2.1444,10.40086 7.51859,7.44457 11.3624-1.58134 22.83126-2.38662 34.22928-3.73197 5.49197-.58956 10.98402-1.17908 16.47777-1.75213l-1.18846-11.2267-.52862.0557-.52715.0571-3e-005,.00012zm-48.86445,8.41163c5.18146.11428-2.44176,7.08959-1.58537,1.77889 .11371-.81753.67685-1.71718 1.58537-1.77889zm23.12415-2.44213c2.75373,1.77492-4.03059.76947-5e-005,2e-005l5e-005-2e-005zm7.18567-.70567c5.16291.19895-1.43588,8.19643-1.57841,2.69686-.0118-1.05924.23078-2.60304 1.57841-2.69686zm4.118-.4349c5.16257.20134-1.43594,8.19626-1.57846,2.69677-.0118-1.0592.23053-2.60319 1.57846-2.69677zm7.53677,1.60242c2.14696,2.53767-4.55589.65785-.45125.0666 .15053-.0237.30069-.0462.45125-.0666zm-32.70964,5.69286c.74223,1.67289-1.84273-.0295 0,0zm33.99988-3.59067c.88836,2.04447-2.2699-.2553 0,0z" fill="#d3d7cf"/>
<path d="m220.49564,170.87904c1.63046,2.64521-2.73134-.31227 0,0zm-25.90319,1.72305c1.52984,2.50682-2.73387-.29678 0,0zm34.82716-1.94483c.29737,3.45242 1.62375,8.06609-1.64228,10.50912-4.1061.95468-8.50935.56133-12.72784,1.0765-11.78522.77205-23.56935,1.56068-35.3538,2.34456-3.31078-2.98662 2.58354-12.33423 4.51795-6.17576 .42929,2.07404 3.14519,2.78098 1.94677-.0871 1.55042-4.69104 7.85646-.34843 6.90903,2.43977 1.58078-.76518 1.15518-5.905 1.86652-1.75037 1.7723,3.92081 6.03414-2.40565 2.84132-3.9292 3.55257-2.03804.0297,7.18759 4.85141,5.18903 2.85901-.90035 2.9808-5.70715-.52323-5.53815 4.19798-1.6081 4.31994,8.66573 8.73471,4.28057-1.07132-1.80118-4.49815-4.48066-.019-4.93366 3.23034-.18664 2.87572,9.16207 6.1148,3.89842-.35799-1.41053-1.84465-5.85691.22579-2.30556 .82278,3.31716 2.79612,2.56102 3.10531.38387-.10282,1.95104 3.45043,5.06142 3.06527,1.92136-2.97253-3.79895 2.01435-8.97344 6.08661-7.32402zm-1.10193,1.02943c-5.85271-2.96257-4.09472,10.47788.3077,5.32073 .39112-1.78445-.49206-3.53344-.3077-5.32073zm-18.0955,3.11515c-2.3376,2.27086 4.04235-.0394 5e-005,0h-5e-005zm-21.08272,1.40237c-5.05863.9578 3.54509,6.55732 1.84285,1.48195-.22223-.78721-.92086-1.64681-1.84285-1.48195zm-7.46905.49685c-5.14102,1.03005 3.20911,7.60841 1.99348,2.03529-.15052-.94287-.82031-2.31561-1.99348-2.03529z" fill="#d3d7cf"/>
<g transform="matrix(.29752,-.40907,.40956,.29716,53.47534,104.47269)">
<path d="m258,512.36218h18.75v12.5h-18.75z" fill="#204a87"/>
<path d="m25.10229,514.961h230.87036v7.07107h-230.87036z" fill="url(#linearGradient5592)" opacity=".69796"/>
<path d="m8.35263,510.75092-.03125,15.34375v.125l19.03125-4.34375v-6.78125l-19-4.34375zm-.03125,15.34375v-15.1875h-16.625v15.1875h16.625z" fill="url(#linearGradient5594)"/>
<path d="m-29.00877,515.3493-6.70063.54801c-4.78261,1.3368-3.78623,4.36745 0,5.80389l6.75045.5231-.04982-6.875z" fill="url(#linearGradient5596)"/>
<path d="m-9.64645,510.4743-20.40625,4.6875v7.28125l20.46875,4.65625-.0625-16.625z" fill="url(#linearGradient5598)"/>
<g transform="matrix(1.05976,0,0,1,-3.16456,58.5)">
<path d="m16.03062,446.47627-20.40625,5.3125-.0625,16.625 20.46875,5.34375 245.59375-.5625v-27.25l-245.59375.53125z" fill="url(#linearGradient5600)" opacity=".52653" stroke="#babdb6" stroke-width="1.92009"/>
<path d="m261.26225,445.73791-245.59375.53125-20.40625,5.3125v.46875h266v-6.3125z" fill="url(#linearGradient5602)" opacity=".52653" stroke="#d3d7cf" stroke-opacity=".7617" stroke-width="1.92009"/>
<path d="m260.9087,474.91006-245.59376-.53125-20.40625-5.3125v-.46875h266.00001v6.3125z" fill="url(#linearGradient5604)" opacity=".52653" stroke="#d3d7cf" stroke-width="1.92009"/>
</g>
<path d="m274.17544,503.40625v30.31868c2.53756-.72785 6.5214-7.23169 6.5214-15.15563s-3.98384-14.4352-6.5214-15.16305z" fill="#204a87"/>
</g>
<path d="m200.81833,172.36779 14.90536-73.85185 9.74163-.05861c0,0-24.64699,76.73889-24.64699,73.91046z" fill="url(#linearGradient5614)" filter="url(#filter5620)" transform="matrix(2.37422,0,0,2.37139,-222.04115,-135.16225)"/>
</g>
</svg>
