<?xml version="1.0" encoding="UTF-8" standalone="no"?>
<svg
   xmlns:dc="http://purl.org/dc/elements/1.1/"
   xmlns:cc="http://creativecommons.org/ns#"
   xmlns:rdf="http://www.w3.org/1999/02/22-rdf-syntax-ns#"
   xmlns:svg="http://www.w3.org/2000/svg"
   xmlns="http://www.w3.org/2000/svg"
   xmlns:xlink="http://www.w3.org/1999/xlink"
   xmlns:sodipodi="http://sodipodi.sourceforge.net/DTD/sodipodi-0.dtd"
   xmlns:inkscape="http://www.inkscape.org/namespaces/inkscape"
   width="426.67"
   height="533.33"
   id="svg2"
   version="1.1"
   inkscape:version="0.48.2 r9819"
   sodipodi:docname="books-308785.svg">
  <metadata
     id="metadata137">
    <rdf:RDF>
      <cc:Work
         rdf:about="">
        <dc:format>image/svg+xml</dc:format>
        <dc:type
           rdf:resource="http://purl.org/dc/dcmitype/StillImage" />
      </cc:Work>
    </rdf:RDF>
  </metadata>
  <sodipodi:namedview
     pagecolor="#ffffff"
     bordercolor="#666666"
     borderopacity="1"
     objecttolerance="10"
     gridtolerance="10"
     guidetolerance="10"
     inkscape:pageopacity="0"
     inkscape:pageshadow="2"
     inkscape:window-width="1580"
     inkscape:window-height="1035"
     id="namedview135"
     showgrid="false"
     inkscape:zoom="0.44250275"
     inkscape:cx="-231.85997"
     inkscape:cy="266.66501"
     inkscape:window-x="0"
     inkscape:window-y="0"
     inkscape:window-maximized="0"
     inkscape:current-layer="svg2" />
  <defs
     id="defs4">
    <linearGradient
       id="linearGradient1964"
       y2="208.51925"
       xlink:href="#linearGradient14011"
       spreadMethod="reflect"
       x2="207.88717"
       y1="202.99856"
       x1="204.24394"
       gradientTransform="scale(1.4033144,0.71259871)"
       gradientUnits="userSpaceOnUse" />
    <linearGradient
       id="linearGradient2091"
       y2="78.397558"
       spreadMethod="reflect"
       x2="231.05738"
       y1="75.329446"
       x1="229.21487"
       gradientTransform="scale(1.0819627,0.92424632)"
       gradientUnits="userSpaceOnUse">
      <stop
         id="stop1972"
         stop-color="#dcc499"
         offset="0" />
      <stop
         id="stop1973"
         stop-color="#e5d8c0"
         offset="1" />
    </linearGradient>
    <linearGradient
       id="svg_1"
       y2="350.26767"
       xlink:href="#linearGradient14011"
       spreadMethod="reflect"
       x2="222.35936"
       y1="338.24711"
       x1="216.13543"
       gradientTransform="scale(1.3781544,0.72560808)"
       gradientUnits="userSpaceOnUse" />
    <linearGradient
       id="linearGradient2092"
       y2="138.01967"
       spreadMethod="reflect"
       x2="99.512357"
       y1="177.32008"
       x1="72.040753"
       gradientTransform="scale(1.5448563,0.64730941)"
       gradientUnits="userSpaceOnUse">
      <stop
         id="stop1992"
         stop-color="#ae4343"
         stop-opacity="0"
         offset="0" />
      <stop
         id="stop1993"
         stop-color="#cea3a3"
         stop-opacity=".553"
         offset=".52727" />
      <stop
         id="stop1994"
         stop-color="#ad8787"
         stop-opacity="0"
         offset="1" />
    </linearGradient>
    <linearGradient
       id="linearGradient2093"
       y2="64.098632"
       x2="138.58373"
       y1="200.68469"
       x1="27.828616"
       gradientTransform="scale(1.8181426,0.55001186)"
       gradientUnits="userSpaceOnUse">
      <stop
         id="stop1978"
         stop-color="#ffc0c0"
         stop-opacity="0"
         offset="0" />
      <stop
         id="stop1981"
         stop-color="#d49a9a"
         stop-opacity=".447"
         offset=".52727" />
      <stop
         id="stop1979"
         stop-color="#e35b5b"
         stop-opacity="0"
         offset="1" />
    </linearGradient>
    <linearGradient
       id="linearGradient2145"
       y2="446.95855"
       xlink:href="#linearGradient14011"
       spreadMethod="reflect"
       x2="65.206355"
       y1="435.4773"
       x1="71.151042"
       gradientTransform="scale(1.5438734,0.64772151)"
       gradientUnits="userSpaceOnUse" />
    <linearGradient
       id="linearGradient2132"
       y2="692.01055"
       xlink:href="#linearGradient14011"
       spreadMethod="reflect"
       x2="79.527462"
       y1="667.54082"
       x1="82.786616"
       gradientTransform="scale(1.2459026,0.80263099)"
       gradientUnits="userSpaceOnUse" />
    <linearGradient
       id="linearGradient2144"
       y2="657.43561"
       xlink:href="#linearGradient14011"
       spreadMethod="reflect"
       x2="122.51859"
       y1="644.93003"
       x1="116.95856"
       gradientTransform="scale(1.9037543,0.52527788)"
       gradientUnits="userSpaceOnUse" />
    <linearGradient
       id="linearGradient14011">
      <stop
         id="stop14012"
         stop-color="#fff"
         offset="0" />
      <stop
         id="stop14015"
         stop-color="#fff"
         offset=".38446" />
      <stop
         id="stop14014"
         offset=".43238" />
      <stop
         id="stop14017"
         offset=".57930" />
      <stop
         id="stop14016"
         stop-color="#fff"
         offset=".62907" />
      <stop
         id="stop14013"
         stop-color="#fff"
         offset="1" />
    </linearGradient>
    <linearGradient
       id="linearGradient1840"
       y2="638.07489"
       xlink:href="#linearGradient14011"
       spreadMethod="reflect"
       x2="112.55666"
       y1="630.18955"
       x1="109.26476"
       gradientTransform="scale(2.1089631,0.47416667)"
       gradientUnits="userSpaceOnUse" />
    <linearGradient
       id="linearGradient1877"
       y2="354.18727"
       xlink:href="#linearGradient14011"
       spreadMethod="reflect"
       x2="67.475444"
       y1="342.95614"
       x1="73.290621"
       gradientTransform="scale(1.5724438,0.63595278)"
       gradientUnits="userSpaceOnUse" />
    <linearGradient
       inkscape:collect="always"
       xlink:href="#linearGradient14011"
       id="linearGradient3890"
       spreadMethod="reflect"
       x1="200.71397"
       y1="158.79684"
       x2="204.15302"
       y2="164.00812"
       gradientTransform="scale(1.4032883,0.71261196)"
       gradientUnits="userSpaceOnUse" />
    <linearGradient
       inkscape:collect="always"
       xlink:href="#linearGradient14011"
       id="linearGradient3892"
       spreadMethod="reflect"
       x1="263.56226"
       y1="847.84672"
       x2="259.69792"
       y2="855.31011"
       gradientTransform="scale(2.0165404,0.49589882)"
       gradientUnits="userSpaceOnUse" />
    <linearGradient
       inkscape:collect="always"
       xlink:href="#linearGradient14011"
       id="linearGradient3894"
       spreadMethod="reflect"
       x1="57.491511"
       y1="409.9954"
       x2="53.627167"
       y2="417.45879"
       gradientTransform="scale(2.0165409,0.4958987)"
       gradientUnits="userSpaceOnUse" />
  </defs>
  <g
     id="g2126"
     transform="matrix(0.99729,0.073553,-0.073553,0.99729,48.087241,-153.1714)"
     style="fill-rule:evenodd">
    <path
       id="path2095"
       d="m 16.712,571.74 6.6621,-49.484 367.73,-24.867 -208.36,143.83 -166.03,-69.481 z"
       inkscape:connector-curvature="0"
       style="fill:#ffffff;stroke-width:0.31200001" />
    <path
       id="path2096"
       d="m 13.978,565.8 168.98,74.467 c 10.707,-18.004 10.022,-26.85 11.324,-46.116 L 21.692,524.108 c -2.0264,18.125 -1.5611,26.483 -7.7205,41.693 z"
       style="fill:url(#linearGradient2132);stroke-width:1.25"
       inkscape:connector-curvature="0" />
    <g
       id="g35"
       style="stroke:#c1ad99;stroke-linecap:round">
      <path
         id="path2097"
         d="m 14.471,570.19 168.61,71.227"
         inkscape:connector-curvature="0"
         style="fill:none;stroke-width:3.75" />
      <g
         id="g38"
         style="fill:#dec7b1;stroke-width:1.96599996;stroke-linejoin:round">
        <path
           id="path2098"
           d="m 183.64,643.51 210.09,-92.771 c 8.1056,-13.741 5.5929,-35.594 0.99152,-53.391 l -209.33,90.641 c 4.5077,15.298 4.6895,40.934 -1.7497,55.521 z"
           inkscape:connector-curvature="0" />
        <path
           id="path2099"
           d="m 20.051,521.37 164.16,66.639 209.47,-91.565 -158.65,-55.782 -214.98,80.707 z"
           inkscape:connector-curvature="0" />
      </g>
    </g>
  </g>
  <g
     id="g2138"
     transform="translate(13.559241,24.858603)"
     style="fill-rule:evenodd">
    <path
       id="path1910"
       d="m 40.483,212.71 70.51,202.41 242.98,-32.392 -0.7867,-40.928 -312.71,-129.09 z"
       inkscape:connector-curvature="0"
       style="fill:#ffffff;stroke-width:0.31200001" />
    <g
       id="g44"
       style="stroke-width:1.25">
      <g
         id="g46"
         style="fill:#6d4fc1;stroke:#6d4fc1">
        <path
           id="path1912"
           d="M 113.69,377.62 355.84,342.499 219.79,197.609 41.47,211.757 113.699,377.617 z"
           inkscape:connector-curvature="0" />
        <path
           id="path1913"
           d="m 111.92,378.98 c -3.75,6.3156 -2.6701,30.251 1.7849,36.848 -10.869,2.3569 -21.326,-7.4834 -27.756,-24.784 l -51.016,-137.24 c -6.4014,-17.221 -7.4948,-32.786 4.7582,-40.687 l 72.229,165.86 z"
           inkscape:connector-curvature="0" />
      </g>
      <path
         id="path1914"
         d="m 112.84,379.46 c -2.7028,11.321 -3.4826,22.588 -0.4595,32.207 l 241.95,-28.085 -0.5108,-39.209 -240.98,35.088 z"
         style="fill:url(#linearGradient2144)"
         inkscape:connector-curvature="0" />
    </g>
    <path
       id="path1911"
       d="M 355.14,382.06 110.2,414.78"
       inkscape:connector-curvature="0"
       style="fill:none;stroke:#6d4fc1;stroke-width:3.75" />
  </g>
  <g
     id="g1834"
     transform="translate(13.559241,24.858603)"
     style="fill-rule:evenodd">
    <path
       id="path1833"
       d="m 56.931,178.39 63.41,181.77 238.84,-18.318 V 300.978 L 56.931,178.388 z"
       inkscape:connector-curvature="0"
       style="fill:#ffffff;stroke-width:0.31200001" />
    <g
       id="g54"
       style="stroke:#33974b">
      <path
         id="path12761"
         d="M 359.98,341.24 119.57,359.856"
         inkscape:connector-curvature="0"
         style="fill:none;stroke-width:3.75" />
      <g
         id="g57"
         style="fill:#33974b;stroke-width:1.25">
        <path
           id="path13383"
           d="m 124.01,326.89 237.75,-25.209 -129.08,-132.25 -174.76,8.1445 66.091,149.32 z"
           inkscape:connector-curvature="0" />
        <path
           id="path14005"
           d="m 122.23,328.05 c -3.8398,5.5238 -5.5065,26.212 -1.3307,32.19 -9.3148,0.25864 -18.581,-6.5596 -24.396,-22.106 l -46.13,-123.33 c -5.7884,-15.475 -6.4316,-29.346 5.7663,-36.069 l 66.091,149.32 z"
           inkscape:connector-curvature="0" />
      </g>
    </g>
    <path
       id="path14006"
       d="m 123.12,328.51 c -2.9527,10.002 -4.0236,20.003 -1.3307,28.633 l 237.36,-18.957 0.5735,-34.886 -236.6,25.209 z"
       style="fill:url(#linearGradient1840);stroke-width:1.25"
       inkscape:connector-curvature="0" />
  </g>
  <g
     id="g1846"
     transform="translate(13.559241,24.858603)"
     style="fill-rule:evenodd">
    <path
       id="path1841"
       d="m 12.119,288.55 v -42.273 l 366.37,-78.205 -182.48,159.93 -183.89,-39.455 z"
       inkscape:connector-curvature="0"
       style="fill:#ffffff;stroke-width:0.31200001" />
    <path
       id="path1542"
       d="m 10.935,287.22 185.05,39.999 c 6.0861,-16.234 3.3197,-22.84 0,-37.871 L 10.935,248.072 c 2.3474,14.326 2.3474,26.099 0,39.148 z"
       style="fill:url(#linearGradient2145);stroke-width:1.25"
       inkscape:connector-curvature="0" />
    <g
       id="g65"
       style="stroke:#9c550d;stroke-linecap:round">
      <path
         id="path1545"
         d="m 10.544,287.64 185.83,40.425"
         inkscape:connector-curvature="0"
         style="fill:none;stroke-width:3.75" />
      <g
         id="g68"
         style="fill:#a57141;stroke-linejoin:round">
        <path
           id="path1546"
           d="m 196.15,326.66 182.26,-114.09 0.5533,-41.523 -182.03,118.55 c 2.2131,12.036 1.9839,24.424 -0.78246,37.061 z"
           inkscape:connector-curvature="0"
           style="stroke-width:5" />
        <path
           id="path1547"
           d="m 11.583,245.67 182.58,41.523 183.69,-119.75 -158.79,-30.089 -207.48,108.32 z"
           inkscape:connector-curvature="0"
           style="stroke-width:1.25" />
      </g>
    </g>
  </g>
  <g
     id="g1859"
     transform="translate(13.559241,24.858603)"
     style="fill-rule:evenodd">
    <path
       id="path1858"
       d="m 27.739,189.91 193.05,107.8 169.8,-58.478 c -3.2878,-8.4546 -6.5757,-21.136 -5.6364,-33.818 l -357.21,-15.5 z"
       inkscape:connector-curvature="0"
       style="fill:#ffffff;stroke-width:0.31200001" />
    <path
       id="path1554"
       d="m 390.31,238.96 -170.59,59.431 c -7.6927,-13.018 -5.8552,-19.032 -4.493,-32.309 l 170.44,-60.52 c -0.5246,12.543 0.8721,22.586 4.6444,33.398 z"
       style="fill:url(#svg_1);stroke-width:1.25"
       inkscape:connector-curvature="0" />
    <g
       id="g75"
       style="stroke-linecap:round">
      <path
         id="path1555"
         d="M 390.73,239.27 219.45,299.171"
         inkscape:connector-curvature="0"
         style="fill:none;stroke:#e86949;stroke-width:3.75" />
      <g
         id="g78"
         style="fill:#e86949;stroke-linejoin:round">
        <path
           id="path1556"
           d="m 219.5,297.93 -186.23,-72.407 -5.4504,-35.348 186.54,76.244 c -0.66911,10.57 1.0177,21.108 5.1382,31.511 z"
           inkscape:connector-curvature="0"
           style="stroke:#e89985;stroke-width:5" />
        <path
           id="path1557"
           d="M 384.77,203.6 216.7,263.994 28.44,186.95 175.33,139.564 384.77,203.6 z"
           inkscape:connector-curvature="0"
           style="stroke:#e86949;stroke-width:1.25" />
      </g>
    </g>
  </g>
  <g
     id="g1871"
     transform="translate(13.559241,24.858603)"
     style="fill-rule:evenodd">
    <path
       id="path1866"
       d="m 19.386,187.09 c 2.3485,14.561 0.4697,22.076 -3.5228,31 l 182.48,43.682 193.05,-114.14 -372,39.455 z"
       inkscape:connector-curvature="0"
       style="fill:#ffffff;stroke-width:0.31200001" />
    <path
       id="path1568"
       d="m 16.703,219.14 182.85,42.328 c 6.8338,-12.339 5.655,-22.291 3.0436,-34.249 l -182.89,-41.767 c 1.6738,11.348 -0.05717,23.618 -3.0101,33.688 z"
       style="fill:url(#linearGradient1877);stroke-width:1.25"
       inkscape:connector-curvature="0" />
    <g
       id="g85"
       style="stroke-linecap:round">
      <path
         id="path1569"
         d="m 16.293,219.45 183.61,42.707"
         inkscape:connector-curvature="0"
         style="fill:none;stroke:#6d9be0;stroke-width:3.75" />
      <g
         id="g88"
         style="fill:#6d9be0;stroke-linejoin:round">
        <path
           id="path1570"
           d="m 199.75,261.04 187.27,-78.397 2.4926,-32.454 -187.25,81.902 c 1.6468,9.5486 0.83916,19.227 -2.5128,28.95 z"
           inkscape:connector-curvature="0"
           style="stroke:#486694;stroke-width:5" />
        <path
           id="path1571"
           d="m 19.292,186.67 180.32,43.372 188.96,-82.745 -157.1,-33.008 -212.17,72.38 z"
           inkscape:connector-curvature="0"
           style="stroke:#6d9be0;stroke-width:1.25" />
      </g>
    </g>
  </g>
  <g
     id="g1883"
     transform="translate(13.559241,24.858603)"
     style="fill-rule:evenodd">
    <path
       id="path1882"
       d="m 33.477,206.11 v -20.432 l 310,-38.75 -155,78.91 -155,-19.727 z"
       inkscape:connector-curvature="0"
       style="fill:#ffffff;stroke-width:0.31200001" />
    <path
       id="path1603"
       d="m 31.95,205.88 157.12,19.907 c 5.1674,-8.0795 2.8186,-11.367 0,-18.848 L 31.95,186.397 c 1.993,7.1296 1.993,12.989 0,19.483 z"
       style="fill:url(#linearGradient3894);stroke-width:1.25"
       inkscape:connector-curvature="0" />
    <g
       id="g95"
       style="stroke:#a57141;stroke-linecap:round">
      <path
         id="path1604"
         d="m 31.618,206.09 157.78,20.118"
         inkscape:connector-curvature="0"
         style="fill:none;stroke-width:3.75" />
      <g
         id="g98"
         style="fill:#a57141;stroke-linejoin:round">
        <path
           id="path1605"
           d="m 189.21,225.51 154.75,-56.779 0.4698,-20.665 -154.55,59 c 1.879,5.9898 1.6844,12.155 -0.66435,18.444 z"
           inkscape:connector-curvature="0"
           style="stroke-width:5" />
        <path
           id="path1606"
           d="M 32.5,185.2 187.52,205.865 343.48,146.266 208.66,131.292 32.5,185.2 z"
           inkscape:connector-curvature="0"
           style="stroke-width:1.25" />
      </g>
    </g>
  </g>
  <g
     id="g1902"
     transform="matrix(0.95631,0,0,0.95631,-374.54076,-195.9614)"
     style="fill-rule:evenodd">
    <path
       id="path1891"
       d="m 449.03,423.24 v -20.432 l 310,-38.75 -155,78.91 -155,-19.727 z"
       inkscape:connector-curvature="0"
       style="fill:#ffffff;stroke-width:0.31200001" />
    <path
       id="path1892"
       d="m 447.5,423.01 157.12,19.907 c 5.1673,-8.0795 2.8185,-11.367 0,-18.848 L 447.5,403.527 c 1.993,7.1296 1.993,12.989 0,19.483 z"
       style="fill:url(#linearGradient3892);stroke-width:1.25"
       inkscape:connector-curvature="0" />
    <g
       id="g105"
       style="stroke-linecap:round">
      <path
         id="path1893"
         d="m 447.17,423.22 157.78,20.118"
         inkscape:connector-curvature="0"
         style="fill:none;stroke:#dfeb5c;stroke-width:3.75" />
      <g
         id="g108"
         style="fill:#dfeb5c;stroke-linejoin:round">
        <path
           id="path1894"
           d="m 604.76,442.64 154.75,-56.779 c 2.6225,-6.3012 2.7791,-14.364 0.46979,-22.074 l -155.61,59.704 c 1.879,5.9898 2.7413,12.86 0.39252,19.149 z"
           inkscape:connector-curvature="0"
           style="stroke:#cdd854;stroke-width:1.69599998" />
        <path
           id="path1895"
           d="M 448.05,402.33 603.07,422.995 759.03,363.396 624.21,348.422 448.05,402.33 z"
           inkscape:connector-curvature="0"
           style="stroke:#dfeb5c;stroke-width:1.25" />
      </g>
    </g>
  </g>
  <g
     id="g1946"
     transform="translate(13.559241,24.858603)"
     style="fill-rule:evenodd">
    <path
       id="path1941"
       d="m 354.75,116.64 v 23.955 l -133.16,44.387 -188.82,-57.068 10.568,-2.8182 311.41,-8.4546 z"
       inkscape:connector-curvature="0"
       style="fill:#ffffff;stroke-width:0.31200001" />
    <path
       id="path1617"
       d="m 221.26,184.53 1.0555,-24.277 134.05,-44.332 -2.1111,24.277 -133,44.332 z"
       style="fill:url(#linearGradient1964);stroke-width:1.25"
       inkscape:connector-curvature="0" />
    <path
       id="path1618"
       d="M 354.26,140.72 220.74,185.052"
       inkscape:connector-curvature="0"
       style="fill:none;stroke:#b2e7b1;stroke-width:3.75;stroke-linecap:round" />
    <g
       id="g116"
       style="fill:#b2e7b1">
      <path
         id="path1620"
         d="m 30.735,127.53 192.11,32.721 133.52,-44.332 -182.61,-33.249 -143.02,44.86 z"
         inkscape:connector-curvature="0"
         style="stroke-width:1.25" />
      <path
         id="path1619"
         d="m 220.51,183.34 -186.08,-32.593 -0.5278,-21.638 185.86,33.905 0.7464,20.327 z"
         inkscape:connector-curvature="0"
         style="stroke:#74d173;stroke-width:6.25;stroke-linecap:round;stroke-linejoin:round" />
    </g>
  </g>
  <g
     id="g1958"
     transform="translate(13.559241,24.858603)"
     style="fill-rule:evenodd">
    <path
       id="path1957"
       d="m 346.3,86.34 -0.7045,22.546 -124,41.568 -181.07,-52.137 8.4546,-2.1137 297.32,-9.8637 z"
       inkscape:connector-curvature="0"
       style="fill:#ffffff;stroke-width:0.31200001" />
    <path
       id="path1590"
       d="m 219.96,150.8 0.9964,-22.917 126.54,-41.848 -1.9928,22.917 -125.54,41.848 z"
       style="fill:url(#linearGradient3890);stroke-width:1.25"
       inkscape:connector-curvature="0" />
    <path
       id="path1594"
       d="M 345.5,109.45 219.46,151.298"
       inkscape:connector-curvature="0"
       style="fill:none;stroke:#ffe79d;stroke-width:3.75;stroke-linecap:round" />
    <g
       id="g124"
       style="fill:#ffe79d">
      <path
         id="path1595"
         d="m 219.96,151.79 -180.35,-32.881 0.4982,-20.426 180.84,29.393 -0.9964,23.913 z"
         inkscape:connector-curvature="0"
         style="stroke:#ffffbb;stroke-width:2.5;stroke-linecap:round;stroke-linejoin:round" />
      <path
         id="path1596"
         d="M 40.111,96.993 221.451,127.881 347.491,86.033 175.121,54.647 40.111,96.993 z"
         inkscape:connector-curvature="0"
         style="stroke-width:1.25" />
    </g>
  </g>
  <g
     id="g2084"
     transform="translate(13.559241,24.858603)"
     style="fill-rule:evenodd;stroke-width:0.31200001">
    <path
       id="path1995"
       d="m 291.17,86.036 -78.734,31.353 -6.6932,-3.3743 79.438,-30.228 5.9886,2.2495 z"
       inkscape:connector-curvature="0"
       style="fill:#ba928c" />
    <path
       id="path1975"
       d="m 77.692,84.911 135.98,31.501 79.57,-68.61 -128.18,-19.411 -86.66,30.931 -0.7046,25.589 z"
       inkscape:connector-curvature="0"
       style="fill:#e5d8c0" />
    <path
       id="path1970"
       d="m 212.97,88.004 80.319,-40.211 -2.1136,37.961 -77.5,30.65 -0.7046,-28.4 z"
       style="fill:url(#linearGradient2091)"
       inkscape:connector-curvature="0" />
    <path
       id="path1969"
       d="m 74.521,59.604 c -0.88068,2.6245 1.3868,6.3749 1.7614,12.794 0.46357,8.1188 -1.0568,11.857 0.35226,13.076 l 135.63,31.775 c -1.0568,-2.7182 0.52841,-11.06 0.3523,-16.028 -0.17615,-4.9677 -1.9375,-11.201 -1.4091,-13.778 29.826,-16.965 50.845,-26.62 80.671,-43.585 -42.273,-7.0298 -84.546,-14.06 -126.82,-21.09 -33.114,14.716 -57.421,22.12 -90.535,36.836 z"
       inkscape:connector-curvature="0"
       style="fill:#be837a" />
    <path
       id="path1985"
       d="m 74.505,59.579 c 0.2491,2.7837 4.1101,15.41 0.87184,25.55 6.4765,1.3918 125.86,29.328 136.5,32.012 -0.14529,-10.157 0.33212,-19.569 -0.99637,-29.676 l -136.38,-27.886 z"
       style="fill:url(#linearGradient2092)"
       inkscape:connector-curvature="0" />
    <path
       id="path1976"
       d="M 74.697,59.604 210.917,87.475 289.058,44.139 164.528,22.628 74.698,59.605 z"
       style="fill:url(#linearGradient2093)"
       inkscape:connector-curvature="0" />
  </g>
</svg>
