<?xml version="1.0" encoding="utf8" standalone="no"?>
<svg viewBox="0 0 200 200" xmlns="http://www.w3.org/2000/svg" xmlns:xlink="http://www.w3.org/1999/xlink">
<defs>
<filter height="2.76357" id="filter5951" width="1.08016" x="-.04008" y="-.88179">
<feGaussianBlur stdDeviation="9.64968"/>
</filter>
<linearGradient gradientTransform="matrix(.9077,.4197,-.4197,.9077,200.4444,-57.0905)" gradientUnits="userSpaceOnUse" id="SVGID_30_" x1="888.38568" x2="849.78131" y1="490.42969" y2="446.56091">
<stop offset="0" stop-color="#292929"/>
<stop offset=".098" stop-color="#212121"/>
<stop offset=".466" stop-color="#090909"/>
<stop offset=".6923"/>
</linearGradient>
<linearGradient id="linearGradient7889">
<stop offset="0" stop-color="#b3b3b3"/>
<stop offset="1" stop-color="#fff"/>
</linearGradient>
<linearGradient gradientTransform="matrix(.9077,.4197,-.4197,.9077,171.0349,93.79305)" gradientUnits="userSpaceOnUse" id="SVGID_29_" x1="954.2959" x2="890.98108" y1="620.96973" y2="435.63019">
<stop offset="0" stop-color="#1f1f1f"/>
<stop offset=".5959" stop-color="#090909"/>
<stop offset="1"/>
</linearGradient>
<linearGradient gradientUnits="userSpaceOnUse" id="linearGradient4333" x1="834.02148" x2="844.17224" y1="774.69659" y2="761.73254">
<stop offset="0" stop-color="#ececec"/>
<stop offset="1" stop-color="#fff"/>
</linearGradient>
<linearGradient gradientUnits="userSpaceOnUse" id="linearGradient4341" x1="875.87402" x2="879.87274" y1="700.19482" y2="750.49133">
<stop offset="0" stop-color="#ccc"/>
<stop offset="1" stop-color="#fff"/>
</linearGradient>
<linearGradient gradientTransform="matrix(.08691,.01634,-.01634,.08691,713.27953,119.40641)" gradientUnits="userSpaceOnUse" id="linearGradient4331" x1="929.45679" x2="890.98108" xlink:href="#SVGID_29_" y1="621.65021" y2="435.63019"/>
<linearGradient gradientUnits="userSpaceOnUse" id="linearGradient4335" x1="829.04858" x2="836.93896" xlink:href="#linearGradient7889" y1="782.87402" y2="767.78247"/>
<linearGradient gradientUnits="userSpaceOnUse" id="linearGradient4337" x1="868.13245" x2="880.91254" xlink:href="#linearGradient7889" y1="792.89661" y2="782.60718"/>
<linearGradient gradientUnits="userSpaceOnUse" id="linearGradient4339" x1="906.10712" x2="918.76538" xlink:href="#linearGradient7889" y1="809.50671" y2="797.75269"/>
<linearGradient gradientTransform="matrix(.9077,.4197,-.4197,.9077,200.4444,-57.0905)" gradientUnits="userSpaceOnUse" id="linearGradient4349" x1="888.38568" x2="849.78131" xlink:href="#SVGID_30_" y1="490.42969" y2="446.56091"/>
</defs>
<path d="m173.74624,875.58551a288.90363,13.13198 0 1,1 -577.80725,0 288.90363,13.13198 0 1,1 577.80725,0z" filter="url(#filter5951)" opacity=".51843" transform="matrix(.30647,-2.54927530057847e-008,-9.70489298646182e-009,.38709,131.88946,-155.47699)"/>
<g transform="matrix(9.46539,-.17691,.17691,9.46539,-7364.74568,-1481.43675)">
<path d="m792.99679,178.01711-12.44915-2.3411 .29039-1.5442-2.07486-.3902-2.27767,12.1112c-.10022.5331.25078,1.0464.78368,1.1465l13.55877,2.5498c.5331.1002 1.04631-.2506 1.14656-.7836l1.80574-9.6021c.10042-.533-.25029-1.046-.78346-1.1463z" fill="url(#linearGradient4331)"/>
<path d="m797.99854,31.23528h15.01413v.12027h-15.01413z" fill="#fff" transform="rotate(10.64997)"/>
<path d="m798.00305,38.18266h15.01422v.12027h-15.01422z" fill="#fff" transform="rotate(10.64997)"/>
<g transform="matrix(.08574,-.02164,.02164,.08574,697.3286,128.63901)">
<path d="m753.36,746.438 166.306,76.898 12.152-26.284-148.162-68.509-24.807,6.024z"/>
<path d="m754.256,745.822 4.848-10.486 24.272-5.895 147.548,68.225-11.371,24.588z"/>
<path d="m795.358,734.981 18.647,8.622-17.921,21.56l-18.646-8.622z" fill="url(#linearGradient4333)"/>
<path d="m833.659,752.691 18.647,8.622-17.922,21.561l-18.647-8.623z" fill="url(#linearGradient4335)"/>
<path d="m871.961,770.401 18.646,8.623-17.921,21.558l-18.647-8.62z" fill="url(#linearGradient4337)"/>
<path d="m910.261,788.11 18.645,8.622-17.92,21.561l-18.646-8.623z" fill="url(#linearGradient4339)"/>
<g transform="matrix(.99337,.11493,-.11493,.99337,86.22021,-85.36556)">
<path d="m774.506,694.674 179.043,38.922-6.153,28.297-159.509-34.675-16.159-19.764z"/>
<path d="m774.851,695.705-2.455,11.292 15.81,19.336 158.847,34.53 5.754-26.471z"/>
<path d="m801.105,729.137 20.075,4.364-1.298-28.006l-20.075-4.364z" fill="url(#linearGradient4341)"/>
<path d="m842.339,738.102 20.074,4.361-1.298-28.004l-20.074-4.364z" fill="url(#linearGradient4341)"/>
<path d="m883.574,747.063 20.074,4.365-1.299-28.005l-20.074-4.364z" fill="url(#linearGradient4341)"/>
<path d="m924.807,756.027 20.075,4.365-1.298-28.006l-20.076-4.365z" fill="url(#linearGradient4341)"/>
</g>
<path d="m825.202,723.61c1.258-2.721-.087-6.044-2.991-7.388l-37.077-17.144c-2.902-1.342-6.308-.215-7.565,2.506l-17.971,38.866c-1.258,2.72.09,6.044 2.991,7.386l37.077,17.144c2.905,1.344 6.307.216 7.565-2.505l17.971-38.865z" fill="url(#linearGradient4349)"/>
<g transform="translate(.90416,2.71248)">
<path d="m787.07802,708.164a2.428,2.428 0 1,0 -4.856,0 2.428,2.428 0 1,0 4.856,0" fill="#1a1a1a"/>
<path d="m784.241,707.176 1.06.14 .407.987-.649.845-1.061-.139l-.406-.988z"/>
<path d="m784.645,710.315c-1.214-.086-1.785-1.12-1.607-.949 .513.489 1.412.809 1.934.731 .679-.106.957-1.792 1.341-1.662 .987.34-.351,1.97-1.668,1.88z" fill="#ccc"/>
<path d="m785.278,706.054c.144.019.43.64.081.804s-1.704-.343-1.935-.187 .25-.83 1.854-.617z" fill="#fff"/>
</g>
<g transform="translate(4,2)">
<path d="m771.18001,742.54401a2.428,2.428 0 1,0 -4.856,0 2.428,2.428 0 1,0 4.856,0" fill="#1a1a1a"/>
<path d="m768.631,741.482 .98.425 .122,1.062-.857.634-.98-.422l-.122-1.061z"/>
<path d="m768.16,744.612c-1.146-.413-1.411-1.564-1.287-1.353 .359.612 1.137,1.164 1.66,1.232 .682.084 1.411-1.463 1.745-1.232 .856.598-.877,1.801-2.118,1.353z" fill="#ccc"/>
<path d="m769.936,740.687c.133.059.237.732-.145.795s-1.544-.796-1.81-.709c-.262.088.468-.729 1.955-.086z" fill="#fff"/>
</g>
<path d="m802.514,757.03198a2.428,2.428 0 1,0 -4.856,0 2.428,2.428 0 1,0 4.856,0" fill="#1a1a1a"/>
<path d="m799.965,755.972 .98.424 .121,1.062-.856.634-.981-.423l-.121-1.062z"/>
<path d="m799.493,759.102c-1.144-.414-1.411-1.565-1.286-1.354 .359.612 1.138,1.164 1.659,1.231 .683.086 1.413-1.461 1.747-1.23 .856.597-.877,1.8-2.12,1.353z" fill="#ccc"/>
<path d="m801.27,755.176c.134.059.238.731-.145.795s-1.545-.796-1.81-.71c-.264.088.468-.729 1.955-.085z" fill="#fff"/>
</g>
<path d="m798.00073,34.47771h15.01413v.12027h-15.01413z" fill="#fff" transform="rotate(10.64997)"/>
<g fill="#fff" font-family="Arial" font-size=".69357" font-weight="bold" letter-spacing="0" transform="rotate(10.61216)" word-spacing="0">
<path d="m798.07011,31.2294v-.49647h.16086c.061,0 .1007.0025.11921.0075 .0285.0075.0523.02371.0715.04877 .0192.02483.0288.05701.0288.09652 0,.03048-.006.0561-.0166.07687s-.0252.03714-.0423.0491l-.0518.02337c-.0239.0047-.0586.0071-.10396.0071h-.0654v.18728h-.10025m.10025-.41248v.14088h.0549c.0395,0 .0659-.0026.0792-.0078s.0237-.01332.0312-.02438 .0115-.02393.0115-.03861c0-.01806-.005-.03296-.0159-.0447s-.024-.01908-.0403-.02201l-.0721-.0034h-.0484"/>
<path d="m798.53373,31.2294v-.49647h.21098c.0531,0 .0915.0045.11549.01355s.0435.02461.0579.04741 .0217.04888.0217.07823c0,.03725-.011.06807-.0329.09245s-.0546.0394-.0982.04572c.0217.01264.0395.02653.0535.04165s.0333.04199.0572.0806l.0606.09686h-.11988l-.0725-.10803-.0528-.07281c-.009-.01016-.0195-.01705-.0301-.02066s-.0274-.0058-.0505-.0058h-.0203v.20726h-.10024m.10024-.2865h.0742c.0481,1e-006 .0781-.002.0901-.0061s.0213-.01106.0281-.021 .0102-.02235.0102-.03725c0-.01671-.005-.03014-.0136-.0403s-.0213-.01693-.0376-.01964l-.0731-.0017h-.0782v.12598"/>
<path d="m799.01428,30.98421c0-.05057.008-.09302.0227-.12733s.0267-.04798.0461-.06807 .0411-.03499.0643-.0447c.0309-.01309.0666-.01964.10701-.01964 .0732,1e-006 .13163.02269.17543.06807s.066.10848.066.18931-.0218.14291-.0654.18829-.10182.06773-.17474.06773-.13253-.02246-.1761-.06739c-.0436-.04515-.0654-.10724-.0654-.18626m.10329-.0034c0,.05622.013.09889.0389.12801s.0589.04335.0989.04335 .0727-.01434.0982-.04301 .0386-.07213.0386-.1297-.0125-.09934-.0376-.12733c-.0248-.028-.0579-.04199-.0992-.04199s-.0746.01422-.0999.04267-.0379.07089-.0379.12801"/>
<path d="m799.57341,30.73293h.18321c.0413,0 .0728.0032.0945.0095 .0291.0086.0541.02382.0748.04572s.0366.04877.0474.0806 .0163.07067.0163.11718c0,.04086-.005.07608-.0152.10566-.0124.03612-.0301.06536-.0532.08771s-.0409.03014-.0704.03962c-.0221.007-.0517.0105-.0887.0105h-.18863v-.49647m.10024.08399v.32883h.0748l.0606-.0047c.0163-.0041.0297-.01095.0403-.02066s.0196-.02563.0264-.04775 .0102-.05272.0102-.0911-.003-.06784-.0102-.08839-.0163-.03657-.0284-.04809-.0277-.0193-.0464-.02337l-.0823-.0047h-.045"/>
<path d="m800.07428,30.73293h.10024v.26889c0,.04267.001.07033.004.08297 .004.02032.0145.03669.0305.04911s.0384.01829.0664.01829 .0499-.0058.0643-.01727 .0231-.02608.0261-.04301 .004-.04504.004-.08432v-.27465h.10025v.26077c-1e-005,.0596-.003.10171-.008.12632s-.0155.04538-.0301.06231-.0339.03048-.0583.04064-.0562.0149-.0955.0149c-.0474,0-.0834-.0054-.10803-.01625s-.0437-.02529-.0579-.04267-.0236-.03601-.0281-.0552c-.007-.02845-.01-.07044-.01-.12598v-.26483"/>
<path d="m800.89382,31.04686 .0972.03082c-.0149.05419-.0397.09448-.0745.1209s-.0784.03928-.13173.03928c-.0659,0-.12011-.02246-.16256-.06739-.0424-.04515-.0637-.10679-.0637-.18491s.0213-.14675.064-.19236 .0988-.06875.16831-.06875c.0607,1e-006 .11006.01795.14799.05385 .0226.02122.0395.0517.0508.09144l-.0992.02371c-.006-.02574-.0182-.04606-.0369-.06096s-.0411-.02235-.0677-.02235c-.0368,1e-006-.0667.01321-.0897.03962s-.0342.0692-.0342.12835 .0113.10747.0339.13411 .0519.03996.0881.03996c.0266,1e-006 .0496-.0085.0688-.0254s.033-.04357.0413-.07992"/>
<path d="m801.18913,31.2294v-.41248h-.14731v-.08399h.39453v.08399h-.14698v.41248h-.10024"/>
<path d="m801.49697,31.2294v-.49647h.10024v.49647h-.10024"/>
<path d="m801.67205,30.98421c0-.05057.008-.09302.0227-.12733s.0266-.04798.0461-.06807 .0411-.03499.0643-.0447c.0309-.01309.0666-.01964.10701-.01964 .0732,1e-006 .13162.02269.17542.06807s.066.10848.066.18931-.0218.14291-.0654.18829-.10182.06773-.17474.06773-.13253-.02246-.17611-.06739c-.0436-.04515-.0654-.10724-.0654-.18626m.10329-.0034c0,.05622.013.09889.0389.12801s.0589.04335.0989.04335 .0727-.01434.0982-.04301 .0386-.07213.0386-.1297-.0125-.09934-.0376-.12733c-.0248-.028-.0579-.04199-.0992-.04199s-.0746.01422-.0999.04267-.0379.07089-.0379.12801"/>
<path d="m802.23253,31.2294v-.49647h.0975l.20319.33154v-.33154h.0931v.49647h-.10059l-.20014-.32376v.32376h-.0931"/>
</g>
<g fill="#fff" font-family="Arial" font-size=".69357" font-weight="bold" letter-spacing="0" transform="rotate(10.61216)" word-spacing="0">
<path d="m798.04471,34.30468 .0975-.0095c.006.03274.0177.05678.0356.07213s.0423.02303.0728.02303 .0566-.0068.0728-.02032 .0247-.0298.0247-.04809c0-.01174-.004-.02167-.0105-.0298s-.0187-.01558-.0359-.02167l-.0803-.02167c-.0537-.01332-.0914-.02969-.11311-.0491-.0305-.02732-.0457-.06062-.0457-.0999 0-.02529.007-.04888.0213-.07078s.0351-.03895.062-.05046 .0597-.01727.0979-.01727c.0623,0 .10916.01366.14055.04098s.0482.06378.0498.10939l-.10024.0044c-.004-.02551-.0136-.0438-.0278-.05486s-.0351-.01693-.0633-.01693-.0519.006-.0684.01795c-.0106.0077-.0159.01795-.0159.03082s.005.02179.0149.03014 .0434.02167.0921.03319 .0848.02348.10803.0359 .0418.02901.0549.05046 .02.04752.02.07891-.008.05509-.0237.07992-.0382.04335-.0671.05554-.0649.01795-.10803.01795c-.0628,0-.11097-.01445-.14461-.04335s-.0537-.07146-.0603-.127"/>
<path d="m798.85105,34.28368 .0972.03082c-.0149.05419-.0397.09448-.0745.1209s-.0784.03928-.13173.03928c-.0659,0-.12011-.02246-.16256-.06739-.0424-.04515-.0637-.10679-.0637-.18491s.0213-.14675.064-.19236 .0988-.06875.16831-.06875c.0607,0 .11006.01795.14799.05385 .0226.02122.0395.0517.0508.09144l-.0992.02371c-.006-.02574-.0182-.04606-.0369-.06096s-.0411-.02235-.0677-.02235c-.0368,0-.0667.01321-.0897.03962s-.0342.0692-.0342.12835 .0113.10747.0339.13411 .0519.03996.0881.03996c.0266,0 .0496-.0085.0688-.0254s.033-.04357.0413-.07992"/>
<path d="m799.0346,34.46621v-.49647h.36812v.08399h-.26787v.11006h.24925v.08365h-.24925v.13512h.27736v.08365h-.37761"/>
<path d="m799.4989,34.46621v-.49647h.0975l.2032.33154v-.33154h.0931v.49647h-.10058l-.20015-.32376v.32376h-.0931"/>
<path d="m799.9991,34.46621v-.49647h.36811v.08399h-.26787v.11006h.24925v.08365h-.24925v.13512h.27736v.08365h-.3776"/>
</g>
<g fill="#fff" font-family="Arial" font-size=".69357" font-weight="bold" letter-spacing="0" transform="rotate(10.61216)" word-spacing="0">
<path d="m798.06977,37.66896h.18322c.0413,0 .0728.0032.0945.0095 .0291.0086.0541.02382.0748.04572s.0366.04877.0474.0806 .0163.07067.0163.11718c0,.04086-.005.07608-.0152.10566-.0124.03612-.0301.06536-.0532.08771s-.0409.03014-.0704.03962c-.0221.007-.0517.0105-.0887.0105h-.18864v-.49647m.10025.08399v.32883h.0748l.0606-.0047c.0163-.0041.0297-.01095.0403-.02066s.0196-.02562.0264-.04775 .0102-.05272.0102-.0911-.003-.06784-.0102-.08839-.0163-.03657-.0284-.04809-.0277-.0193-.0464-.02337l-.0823-.0047h-.045"/>
<path d="m799.01903,38.16543h-.10905l-.0434-.11277h-.19845l-.041.11277h-.10634l.19338-.49647h.106l.19879.49647m-.18457-.19642-.0684-.18423-.067.18423h.13546"/>
<path d="m799.13417,38.16543v-.41248h-.14732v-.08399h.39454v.08399h-.14698v.41248h-.10024"/>
<path d="m799.44505,38.16543v-.49647h.36812v.08399h-.26787v.11006h.24925v.08365h-.24925v.13512h.27736v.08365h-.37761"/>
</g>
</g>
</svg>
