<?xml version="1.0" encoding="utf8" standalone="no"?>
<svg viewBox="0 0 64 64" xmlns="http://www.w3.org/2000/svg" xmlns:xlink="http://www.w3.org/1999/xlink">
<defs>
<linearGradient id="linearGradient4339">
<stop offset="0" stop-color="#b6f3b1"/>
<stop offset="1" stop-color="#27af1e"/>
</linearGradient>
<linearGradient id="linearGradient2127">
<stop offset="0" stop-color="#1d6921"/>
<stop offset="1" stop-color="#124917"/>
</linearGradient>
<linearGradient gradientTransform="matrix(0,1,-1,0,67.72203,7.14168)" gradientUnits="userSpaceOnUse" id="linearGradient1481" x1="11.96947" x2="32" y1="12.45802" y2="63.25385">
<stop offset="0" stop-color="#2bb135"/>
<stop offset="1" stop-color="#0d5f11"/>
</linearGradient>
<linearGradient gradientTransform="matrix(0,1,-1,0,67.72206,7.14168)" gradientUnits="userSpaceOnUse" id="linearGradient1485" x1="11.96947" x2="32" xlink:href="#linearGradient2127" y1="12.45802" y2="63.25385"/>
<linearGradient gradientTransform="matrix(0,1,-1,0,69.20505,-3.35799)" gradientUnits="userSpaceOnUse" id="linearGradient2161" x1="11.96947" x2="32" xlink:href="#linearGradient2127" y1="12.45802" y2="63.25385"/>
<radialGradient cx="31.95162" cy="28.87365" gradientTransform="matrix(1.09576,-.15073,8.197389e-2,.59593,-5.28432,16.88350)" gradientUnits="userSpaceOnUse" id="radialGradient1483" r="19.6875" xlink:href="#linearGradient4339"/>
<radialGradient cx="31.95162" cy="28.87365" gradientTransform="matrix(.9607,-.13674,7.376936e-2,.51827,-.73211,18.67874)" gradientUnits="userSpaceOnUse" id="radialGradient1489" r="19.6875" xlink:href="#linearGradient4339"/>
</defs>
<path d="m18.54688,2.36354c-.44329.06005-.78489.35068-.90625.78125l-5.84375,21.84375c-.14757.588.19824,1.20881.78125,1.375l21.84375,5.84375c.43356.11018.8826-.02112 1.15625-.375s.15321-.76435-.0625-1.15625c0,0-2.71916-4.69062-4.59375-7.9375 7.32033-4.48203 21.44466-5.11367 22.28125,16.96875 .02808.47399.41935.95909 1,.9375 .99931-.03716 1-1 1-1v-12.5c0-14.5-9.62693-19.93473-17.15625-19.34375-5.33223.29194-10.45689,2.02822-13.875,3.21875-1.92025-3.32596-4.65625-8.0625-4.65625-8.0625-.23153-.38276-.52546-.6538-.96875-.59375z" fill="url(#linearGradient2161)"/>
<path d="m17.25,14.75-5.59375,20.90625 20.875,5.59375c-.34475-.59469-2.50948-4.32908-4.25-7.34375-.34764-.62326-.14064-1.40984.46875-1.78125 3.96089-2.42514 9.71742-3.84893 14.8125-1.5625 4.20345,1.88631 7.49749,6.49869 8.8125,14.34375v-7.25c0-6.95607-2.25301-11.51326-5.3125-14.34375s-7.00224-3.95468-10.40625-3.6875h-.03125c-5.09159.27877-10.0925,1.96941-13.5,3.15625-.60493.21273-1.27546-.03708-1.59375-.59375l-4.28125-7.4375z" fill="url(#linearGradient1481)" transform="translate(1.48299,-10.49966)"/>
<path d="m17.4375,16.34375-5.03125,18.875 18.8125,5.03125c-.82631-1.4257-2.03867-3.55429-3.46875-6.03125-.52309-.90906-.23309-2.06905.65625-2.625 4.10147-2.51122 10.05668-3.99439 15.40625-1.59375 3.43017,1.5393 6.21041,4.89361 7.96875,9.96875v-2.3125c0-6.81866-2.23158-11.20049-5.15625-13.90625s-6.67083-3.75395-9.90625-3.5h-.0625c-4.9791.27261-9.90996,1.93989-13.3125,3.125-.89006.31429-1.87741-.05432-2.34375-.875-1.46682-2.5406-2.72693-4.70965-3.5625-6.15625z" fill="url(#radialGradient1483)" transform="translate(1.48299,-10.49966)"/>
<g transform="matrix(-1,0,0,-1,62.51701,74.49966)">
<path d="m17.06388,12.8632c-.44329.06005-.78489.35068-.90625.78125l-5.84375,21.84375c-.14757.588.19824,1.20881.78125,1.375l21.84375,5.84375c.43356.11018.8826-.02112 1.15625-.375s.15321-.76435-.0625-1.15625c0,0-2.71916-4.69062-4.59375-7.9375 7.32033-4.48203 21.44466-5.11367 22.28125,16.96875 .02808.47399.41935.95909 1,.9375 .99931-.03716 1-1 1-1v-12.5c0-14.5-9.62693-19.93473-17.15625-19.34375-5.33223.29194-10.45689,2.02822-13.875,3.21875-1.92025-3.32596-4.65625-8.0625-4.65625-8.0625-.23153-.38276-.52546-.6538-.96875-.59375z" fill="url(#linearGradient1485)"/>
<path d="m17.25,14.75-5.59375,20.90625 20.875,5.59375c-.34475-.59469-2.50948-4.32908-4.25-7.34375-.34764-.62326-.14064-1.40984.46875-1.78125 3.96089-2.42514 9.71742-3.84893 14.8125-1.5625 4.20345,1.88631 7.49749,6.49869 8.8125,14.34375v-7.25c0-6.95607-2.25301-11.51326-5.3125-14.34375s-7.00224-3.95468-10.40625-3.6875h-.03125c-5.09159.27877-10.0925,1.96941-13.5,3.15625-.60493.21273-1.27546-.03708-1.59375-.59375l-4.28125-7.4375z" fill="url(#linearGradient1481)"/>
<path d="m17.4375,16.34375-5.03125,18.875 18.8125,5.03125c-.82631-1.4257-2.03867-3.55429-3.46875-6.03125-.52309-.90906-.23309-2.06905.65625-2.625 4.10147-2.51122 10.05668-3.99439 15.40625-1.59375 3.43017,1.5393 6.21041,4.89361 7.96875,9.96875v-2.3125c0-6.81866-2.23158-11.20049-5.15625-13.90625s-6.67083-3.75395-9.90625-3.5h-.0625c-4.9791.27261-9.90996,1.93989-13.3125,3.125-.89006.31429-1.87741-.05432-2.34375-.875-1.46682-2.5406-2.72693-4.70965-3.5625-6.15625z" fill="url(#radialGradient1489)"/>
</g>
</svg>
