<?xml version="1.0" encoding="utf8" standalone="no"?>
<svg viewBox="0 0 196 196" xmlns="http://www.w3.org/2000/svg">
<path d="m186,98a88,88 0 1,0 -176,0 88,88 0 1,0 176,0" fill="none" stroke="#000" stroke-width="20"/>
<path d="m97.28125,43c-26.06286,0-47.90006,18.15256-53.5625,42.5h26.28125c4.74191-10.3271 15.17979-17.5 27.28125-17.5 16.55999,0 30,13.44 30,30s-13.44,30-30,30c-12.10147,0-22.53934-7.1729-27.28125-17.5h-26.28125c5.66243,24.34745 27.49963,42.5 53.5625,42.5 30.36,0 54.99999-24.64 55-55s-24.64001-55-55-55z"/>
</svg>
