<?xml version="1.0" encoding="utf8" standalone="no"?>
<svg viewBox="0 0 233.17921 471.52185" xmlns="http://www.w3.org/2000/svg">
<title>Manifestant</title>
<g transform="translate(-174.01219,-202.05288)">
<path d="m183.77365,671.9382c-7.46164,2.1526-12.05968-2.9995-5.87926-7.668l22.87193-17.29881c7.64717-71.55417 12.31572-141.07599 12.463-207.21391l-12.53115,37.20596c1.19766,10.88444 17.04732,11.43836 19.74893,13.51478-1.37094,24.78974-4.78111,5.93229-7.66998,18.21216-15.51594,1.40193-37.21609-22.65246-34.28277-40.14382 6.83495-26.56438 12.91422-34.1113 28.18512-62.8812 16.80532-7.90081 42.15822-12.63558 58.96354-4.26475 16.23248,22.8172 31.31962,29.99415 40.38895,50.75041 1.71308,3.9206-39.709,23.15873-39.7529,21.3286l-1.32948-19.73545 18.22861-5.58277-20.53445-14.22759c5.79325,37.06487 5.73295,134.4964 17.19185,207.52202l25.66294,22.30709c5.421,5.1417 4.5935,7.9403-1.37267,8.8118l-45.68187-8.38892-19.23764-123.39626-19.05445,124.31078z" fill="#fff" stroke="#000" stroke-dashoffset="3.003" stroke-linecap="round" stroke-linejoin="round" stroke-width="2"/>
<path d="m256.78013,377.36137c-.23209,10.96526-4.43389,22.60057-14.00179,29.17383-6.85331,4.46902-17.11307,2.73933-22.16962-3.59219-7.86606-8.36953-9.91963-20.28576-8.86662-31.12308 1.09789-9.745 5.52153-19.79253 14.2512-25.36979 6.16789-3.57685 14.8598-2.81316 19.96011,2.27567 8.26757,7.15309 10.96868,18.3952 10.82672,28.63556z" fill="#fff" stroke="#000" stroke-dashoffset="3.003" stroke-linecap="round" stroke-linejoin="round" stroke-width="2"/>
<path d="m233.48174,510.59274 37.2323-187.55553 16.4915,4.34887-40.86592,193.49341-14.56575-4.82384z" fill="#fff" stroke="#000" stroke-linecap="round" stroke-linejoin="round" stroke-width="2"/>
<path d="m209.01701,486.6903c5.46013,2.97097 15.55274,5.32847 23.89705,4.40094 6.63367-.73738 14.59575-2.39767 19.14247,1.66035 6.29681,1.72318 1.83327,18.07141-6.02561,18.07683l-27.07-1.71963-10.06791-.74058" fill="#fff" stroke="#000" stroke-linecap="round" stroke-linejoin="round" stroke-width="2"/>
<path d="m268.1396,453.06516c-8.00364-4.39017-16.15957-6.16263-25.10671-6.77881-10.18885,4.40221-8.70487,14.69945-5.02133,20.5875 5.42242,3.67122 13.93655,2.56977 21.63261,4.34181 2.52986.5825 5.16317,1.28367 7.95021,2.18593" fill="#fff" stroke="#000" stroke-linecap="round" stroke-linejoin="round" stroke-width="2"/>
<path d="m296.83219,224.35664 3.55062-18.46325 19.88349,5.681-4.26075,15.62274z" fill="#fff" stroke="#000" stroke-linecap="round" stroke-linejoin="round" stroke-width="2"/>
<path d="m203.0957,203.05288-22.724,120.72123 201.67546,46.86824 24.14424-129.24272z" fill="#fff" stroke="#000" stroke-linecap="round" stroke-linejoin="round" stroke-width="2"/>
</g>
</svg>
