<?xml version="1.0" encoding="utf8" standalone="no"?>
<svg viewBox="0 0 246.67273 272.5712" xmlns="http://www.w3.org/2000/svg">
<g transform="translate(-247.91537,-330.8039)">
<path d="m277,456.36218c8.30908-4.30288 22.81243,1.73177 33-2.5 18.49764-7.68366 41.25303-35.56553 49.61828-42.47043 15.01363-12.39265 28.86122-17.60858 37.38172-34.02957 4.37065-8.42325 10.03376-28.92341 19-38 2.00149-2.02612 6.68273-3.91726 9.5-3.5 7.05667,1.04514 11.15856,5.83954 15.5,11.5 3.72958,4.8627 6.37038,10.88294 6,17-1.3169,21.74956-24.61601,36.1668-31,57-2.35201,7.67545-6.69393,17.48759-2,24 5.93725,8.2374 33.11669,6.499 48,14 9.34691,4.71072 20.34891,9.62328 25,19 3.70302,7.46539 3.18903,17.301 0,25-2.52558,6.09729-8.78128,7.78447-11,14-2.25242,6.30995 1.82669,13.92557-1,20-3.23761,6.9575-13.61732,9.70071-18,16-3.13968,4.51272-1.48792,8.77063-5,13-5.62207,6.77029-13.75596,5.79868-20,12-3.91494,3.88815-6.74304,10.48963-11,14-6.36209,5.24631-15.75493,6.13738-24,6-9.70547-.16171-15.32727-4.18732-25-5-9.02359-.75814-21.35065,2.68119-30,0-21.44566-6.6479-31.75823-30.28497-51-44-7.45344-5.31262-20.25332,1.18547-27-5-11.98148-10.98482-12.21983-29.89737-10-46 2.28741-16.59287 8.12626-34.29758 23-42z" fill="#3c9a50" stroke="#1c4d1d" stroke-linecap="round" stroke-linejoin="round" stroke-width="10"/>
<path d="m472,517.86218c0,0-28.51366,6.76674-40.5,2.5-15.51062-5.52127-23.73518-12.77948-39.5-20.5-3.14686-1.54112-5.46-7.59549-3.5-10.5 5.13091-7.60346 16.86275-11.69404 26-12.5 11.8389-1.04426 24.62476,7.5217 33.5,10 2.7711.7738 9.5-1.5 9.5-1.5" fill="#3c9a50" stroke="#1c4d1d" stroke-linecap="round" stroke-linejoin="round" stroke-width="10"/>
<path d="m454,551.36218c0-.34632-23.76631,1.12604-38-3.5-12.96247-4.21289-20.47061-11.09586-43.5-21-9.724-4.18196-3.45432-8.13408-2-11.5 3.0865-7.14347 18-16.5 18-16.5" fill="#3c9a50" stroke="#1c4d1d" stroke-linecap="round" stroke-linejoin="round" stroke-width="10"/>
<path d="m431,577.36218c0,0-19.98453-.47071-28.5-5-12.90727-6.86525-28.26059-12.85927-41-19.5-3.59594-1.87447-3.16011-8.11431-2-12 1.6871-5.65079 12-13 12-13" fill="#3c9a50" stroke="#1c4d1d" stroke-linecap="round" stroke-linejoin="round" stroke-width="10"/>
<path d="m396.36396,597.86218c0,0-34.16816-11.00393-43.86396-20-2.59177-2.40473-.61803-9.1459.5-12.5 1.78885-5.36656 10-10 10-10" fill="#3c9a50" stroke="#1c4d1d" stroke-linecap="round" stroke-linejoin="round" stroke-width="10"/>
</g>
</svg>
