<?xml version="1.0" encoding="utf8" standalone="no"?>
<svg viewBox="0 0 480 260" xmlns="http://www.w3.org/2000/svg" xmlns:xlink="http://www.w3.org/1999/xlink">
<defs>
<filter height="1.68909" id="filter6021" width="1.13637" x="-.06818" y="-.34454">
<feGaussianBlur stdDeviation="13.63167"/>
</filter>
<linearGradient id="linearGradient5891">
<stop offset="0" stop-color="#ffb200"/>
<stop offset="1" stop-color="#ff5200"/>
</linearGradient>
<linearGradient id="linearGradient5883">
<stop offset="0" stop-color="#00aad4"/>
<stop offset="1" stop-color="#0085a6" stop-opacity=".99107"/>
</linearGradient>
<linearGradient id="linearGradient5865">
<stop offset="0" stop-color="#009bc2"/>
<stop offset="1" stop-color="#0cf"/>
</linearGradient>
<linearGradient gradientUnits="userSpaceOnUse" id="linearGradient6394" x1="175.70462" x2="171.33502" xlink:href="#linearGradient5891" y1="779.63489" y2="1052.4921"/>
<linearGradient gradientUnits="userSpaceOnUse" id="linearGradient6396" x1="335.64285" x2="-25.64287" xlink:href="#linearGradient5865" y1="761.41571" y2="428.55859"/>
<linearGradient gradientUnits="userSpaceOnUse" id="linearGradient6398" x1="-112.14286" x2="43.95797" xlink:href="#linearGradient5891"/>
<linearGradient gradientUnits="userSpaceOnUse" id="linearGradient6402" x1="184.79956" x2="290.97321" xlink:href="#linearGradient5883" y1="753.39136" y2="795.53424"/>
<linearGradient gradientUnits="userSpaceOnUse" id="linearGradient6404" x1="91.00512" x2="101.94551" xlink:href="#linearGradient5865" y1="511.15219" y2="559.90216"/>
<linearGradient gradientUnits="userSpaceOnUse" id="linearGradient6406" x1=".36942" x2="81.86643" xlink:href="#linearGradient5883"/>
<linearGradient gradientTransform="matrix(.48511,.64249,-.64249,.48511,318.51514,176.5807)" gradientUnits="userSpaceOnUse" id="linearGradient6408" x1="23.10801" x2="77.77667" xlink:href="#linearGradient5883"/>
<linearGradient gradientUnits="userSpaceOnUse" id="linearGradient6420" x1="16.95771" x2="80.99244" xlink:href="#linearGradient5883"/>
<linearGradient gradientUnits="userSpaceOnUse" id="linearGradient6424" x1="-139.90105" x2="34.84519" xlink:href="#linearGradient5891"/>
</defs>
<g transform="matrix(.31968,0,0,.31968,101.61216,-105.23257)">
<g transform="matrix(.77641,0,0,.77641,42.23571,204.27731)">
<path d="m402.04071,1084.687c0,26.2209-107.41191,47.4772-239.91122,47.4772s-239.91123-21.2563-239.91123-47.4772 107.41191-47.4772 239.91123-47.4772 239.91122,21.2563 239.91122,47.4772z" fill="#93aca7" filter="url(#filter6021)" opacity=".63158" transform="matrix(1.11158,0,0,1.0714,8.6788,-67.86929)"/>
<path d="m136.875,872.96875a10.001,10.001 0 0,0 -8.125,4.5625c0,0-54.19671,83.01539-5.09375,171.34375-12.98463.4866-30.09534,1.117-48.96875,1.7188-17.2174.5489-34.644,1.0545-48.125,1.2812-6.7405.1133-12.48045.1643-16.65625.125-2.0879-.02-3.80612-.068-4.9375-.125s-2.40323-.4595-.46875.094a10.001,10.001 0 1,0 -5.5,19.2187c2.79295.7984 3.37517.5762 4.96875.6563s3.50246.1351 5.75.1562c4.49508.042 10.35135-.01 17.1875-.125 4.73893-.08 10.04235-.2082 15.53125-.3438-5.09535,1.1736-10.01309,2.3031-14.40625,3.2813-6.58032,1.4651-12.21393,2.6684-16.3125,3.4687-2.04928.4004-3.724.7034-4.84375.875s-2.44353.035-.4375.1876a10.001,10.001 0 1,0 -1.53125,19.9374c2.8963.2211 3.42284-.102 5-.3437s3.45029-.6004 5.65625-1.0313c4.41193-.8615 10.13881-2.0766 16.8125-3.5624 10.35843-2.3064 23.06151-5.2786 36.03125-8.3438-11.65355,6.0281-23.06333,11.8969-32.3125,16.5312-6.02717,3.02-11.18747,5.5716-14.96875,7.3438-1.89064.8861-3.45551,1.5615-4.5,2s-2.3582.6203-.375.2812a10.00277,10.00277 0 1,0 3.375,19.7188c2.86331-.4893 3.27881-.9448 4.75-1.5625s3.2148-1.39 5.25-2.3437c4.0704-1.9078 9.3248-4.4996 15.4375-7.5626 12.22541-6.1256 27.79523-14.1215 43.125-22.0937 25.58999-13.308 46.66609-24.4636 54.21875-28.4687a10.001,10.001 0 0,0 8.59375-5.0313 10.001,10.001 0 0,0 -2.375-15.9687 10.001,10.001 0 0,0 -.15625-.094 10.001,10.001 0 0,0 -.15625-.062 10.001,10.001 0 0,0 -1.96875-.7813c-53.01037-82.26645-.9375-159.31245-.9375-159.31245a10.001,10.001 0 0,0 -8.53125-15.625zm98.75,0a10.001,10.001 0 0,0 -8.25,15.625c0,0 52.07287,77.046-.9375,159.31245a10.001,10.001 0 0,0 -2.78125,1.25 10.001,10.001 0 0,0 -2.03125,15.4063 10.001,10.001 0 0,0 1.625,1.5625 10.00488,10.00488 0 0,0 6.40625,3.3125c6.86498,3.6414 28.76138,15.2459 54.96875,28.875 15.32977,7.9722 30.86834,15.9682 43.09375,22.0937 6.1127,3.0629 11.39835,5.6547 15.46875,7.5626 2.0352.9538 3.74756,1.726 5.21875,2.3437s1.91794,1.0732 4.78125,1.5625a10.00277,10.00277 0 1,0 3.375-19.7188c1.9832.339.63824.1573-.40625-.2812s-2.57811-1.1139-4.46875-2c-3.78129-1.7722-8.97283-4.3237-15-7.3438-9.24917-4.6343-20.65895-10.5031-32.3125-16.5312 12.96975,3.0652 25.67282,6.0374 36.03125,8.3438 6.67369,1.4858 12.43182,2.7008 16.84375,3.5624 2.20596.431 4.04784.7896 5.625,1.0313s2.1037.5648 5,.3437a10.001,10.001 0 1,0 -1.5-19.9374c2.00603-.1531.651-.016-.46875-.1876s-2.79447-.4746-4.84375-.875c-4.09857-.8004-9.73218-2.0036-16.3125-3.4687-4.39316-.9782-9.31554-2.1077-14.40625-3.2813 5.50033.1359 10.81465.264 15.5625.3438 6.83615.1149 12.69242.1673 17.1875.125 2.24754-.021 4.15642-.076 5.75-.1562s2.1758.1421 4.96875-.6563a10.001,10.001 0 0,0 -4.84375-19.4063c.0382-.02-.43165.057-1.15625.094-1.13138.057-2.81835.1054-4.90625.125-4.1758.039-9.947-.012-16.6875-.125-13.481-.2267-30.9076-.7323-48.125-1.2812-18.8494-.601-35.96353-1.2011-48.9375-1.6876 49.12265-88.33717-5.125-171.37495-5.125-171.37495a10.001,10.001 0 0,0 -8.40625-4.5625z" fill="url(#linearGradient6394)"/>
<path d="m118.125,898.47825-1.69643,4.19643c0,0 6.42857,5.66965 19.19643,4.41965l2.76786-5.80358z" fill="#d66c0b"/>
<path d="m255.44643,900.44253 1.69643,4.19643c0,0-6.42857,5.66965-19.19643,4.41965l-2.76786-5.80358z" fill="#d66c0b"/>
</g>
<path d="m-67.14286,586.57056c0,0-2.85714-167.52983 160-167.52983 125.05113,0 127.96967,120.45917 129.05332,189.33587 31.2794,135.03356 207.7804,18.52569 228.08954-13.63385 0,0 45.71429,311.90515-258.57143,311.90515s-258.57143-320.07734-258.57143-320.07734z" fill="url(#linearGradient6396)"/>
<g fill="url(#linearGradient6398)" transform="translate(-28.28427)">
<path d="m-112.14286,508.07647c0,0 97.14286-23.57143 155.71429,67.85714 0,0 11.42857,69.28572-90,101.42857 0,0 23.57143-44.28571 20.71429-80 0,0-24.28572-56.42856-86.42857-89.28571z" fill="url(#linearGradient6398)"/>
<path d="m-90.46834,515.64041c0,0 44.93479-5.00194 107.7001,66.6939 0,0 .74863,50.84986-54.10975,87.21614 0,0 19.22262-40.26338 16.89261-72.73386 0,0-19.80513-51.30334-70.48295-81.17618z" fill="#a40"/>
<path d="m-3.0625,561.09375c-7.01272,5.02129-11.59375,13.24834-11.59375,22.53125 0,14.64952 11.40993,26.6199 25.8125,27.59375 6.24128-16.69209 6.0625-28.875 6.0625-28.875-7.00333-7.9998-13.75955-15.04649-20.28125-21.25z" fill="#520"/>
<path d="m2.65625,592.34375c-2.75976.10242-5.5625.67969-8.375,1.8125-25.71429,10.35714-20,61.0625-20,61.0625s7.2806-13.51292 22.5625-17.5c11.88959-16.38043 16.85397-32.12708 18.90625-42.625-4.17714-1.83696-8.58538-2.91731-13.09375-2.75z" fill="#f00"/>
</g>
<path d="m174.54415,814.26943c0,0 108.98571,70.04873 187.76282-22.63396 0,0-122.93204,5.88277-137.41726-64.11996z" fill="#2c89a0"/>
<path d="m171.72814,813.75919c0,0 116.66344,64.69589 187.3165-34.31957 0,0-115.01063,5.63366-135.36662-62.89252z" fill="url(#linearGradient6402)"/>
<path d="m123.23861,534.40649c0,12.69204-10.28893,22.98097-22.98097,22.98097s-22.98097-10.28893-22.98097-22.98097 10.28893-22.98097 22.98097-22.98097 22.98097,10.28893 22.98097,22.98097z" fill="url(#linearGradient6404)" transform="matrix(1.6477,0,0,1.6477,-64.93734,-346.13758)"/>
<path d="m123.23861,534.40649c0,12.69204-10.28893,22.98097-22.98097,22.98097s-22.98097-10.28893-22.98097-22.98097 10.28893-22.98097 22.98097-22.98097 22.98097,10.28893 22.98097,22.98097z" transform="matrix(1.321,0,0,1.321,-32.18316,-171.54695)"/>
<path d="m123.23861,534.40649c0,12.69204-10.28893,22.98097-22.98097,22.98097s-22.98097-10.28893-22.98097-22.98097 10.28893-22.98097 22.98097-22.98097 22.98097,10.28893 22.98097,22.98097z" fill="#fff" transform="matrix(.52556,0,0,.52556,54.74759,239.18041)"/>
<path d="m123.23861,534.40649c0,12.69204-10.28893,22.98097-22.98097,22.98097s-22.98097-10.28893-22.98097-22.98097 10.28893-22.98097 22.98097-22.98097 22.98097,10.28893 22.98097,22.98097z" fill="#fff" transform="matrix(.3409,0,0,.3409,85.99158,350.59283)"/>
<path d="m10.34473,376.8739c0,0 61.36458,22.96466 70.77633,62.11752 0,0-1.88235-50.82342-33.88228-77.1763s-61.74105,2.63528-36.89404,15.05878z" fill="url(#linearGradient6406)"/>
<path d="m81.94449,385.2664c0,0 10.07172,33.92017-3.73975,50.71749 0,0 21.29147-17.35008 22.23578-39.71718s-21.22736-25.75176-18.49603-11.00031z" fill="url(#linearGradient6408)"/>
<g transform="translate(684.28572)">
<g transform="matrix(.77641,0,0,.77641,42.23571,204.27731)">
<path d="m402.04071,1084.687c0,26.2209-107.41191,47.4772-239.91122,47.4772s-239.91123-21.2563-239.91123-47.4772 107.41191-47.4772 239.91123-47.4772 239.91122,21.2563 239.91122,47.4772z" fill="#93aca7" filter="url(#filter6021)" opacity=".63158" transform="matrix(1.11158,0,0,1.0714,8.6788,-67.86929)"/>
<path d="m136.875,872.96875a10.001,10.001 0 0,0 -8.125,4.5625c0,0-54.19671,83.01539-5.09375,171.34375-12.98463.4866-30.09534,1.117-48.96875,1.7188-17.2174.5489-34.644,1.0545-48.125,1.2812-6.7405.1133-12.48045.1643-16.65625.125-2.0879-.02-3.80612-.068-4.9375-.125s-2.40323-.4595-.46875.094a10.001,10.001 0 1,0 -5.5,19.2187c2.79295.7984 3.37517.5762 4.96875.6563s3.50246.1351 5.75.1562c4.49508.042 10.35135-.01 17.1875-.125 4.73893-.08 10.04235-.2082 15.53125-.3438-5.09535,1.1736-10.01309,2.3031-14.40625,3.2813-6.58032,1.4651-12.21393,2.6684-16.3125,3.4687-2.04928.4004-3.724.7034-4.84375.875s-2.44353.035-.4375.1876a10.001,10.001 0 1,0 -1.53125,19.9374c2.8963.2211 3.42284-.102 5-.3437s3.45029-.6004 5.65625-1.0313c4.41193-.8615 10.13881-2.0766 16.8125-3.5624 10.35843-2.3064 23.06151-5.2786 36.03125-8.3438-11.65355,6.0281-23.06333,11.8969-32.3125,16.5312-6.02717,3.02-11.18747,5.5716-14.96875,7.3438-1.89064.8861-3.45551,1.5615-4.5,2s-2.3582.6203-.375.2812a10.00277,10.00277 0 1,0 3.375,19.7188c2.86331-.4893 3.27881-.9448 4.75-1.5625s3.2148-1.39 5.25-2.3437c4.0704-1.9078 9.3248-4.4996 15.4375-7.5626 12.22541-6.1256 27.79523-14.1215 43.125-22.0937 25.58999-13.308 46.66609-24.4636 54.21875-28.4687a10.001,10.001 0 0,0 8.59375-5.0313 10.001,10.001 0 0,0 -2.375-15.9687 10.001,10.001 0 0,0 -.15625-.094 10.001,10.001 0 0,0 -.15625-.062 10.001,10.001 0 0,0 -1.96875-.7813c-53.01037-82.26645-.9375-159.31245-.9375-159.31245a10.001,10.001 0 0,0 -8.53125-15.625zm98.75,0a10.001,10.001 0 0,0 -8.25,15.625c0,0 52.07287,77.046-.9375,159.31245a10.001,10.001 0 0,0 -2.78125,1.25 10.001,10.001 0 0,0 -2.03125,15.4063 10.001,10.001 0 0,0 1.625,1.5625 10.00488,10.00488 0 0,0 6.40625,3.3125c6.86498,3.6414 28.76138,15.2459 54.96875,28.875 15.32977,7.9722 30.86834,15.9682 43.09375,22.0937 6.1127,3.0629 11.39835,5.6547 15.46875,7.5626 2.0352.9538 3.74756,1.726 5.21875,2.3437s1.91794,1.0732 4.78125,1.5625a10.00277,10.00277 0 1,0 3.375-19.7188c1.9832.339.63824.1573-.40625-.2812s-2.57811-1.1139-4.46875-2c-3.78129-1.7722-8.97283-4.3237-15-7.3438-9.24917-4.6343-20.65895-10.5031-32.3125-16.5312 12.96975,3.0652 25.67282,6.0374 36.03125,8.3438 6.67369,1.4858 12.43182,2.7008 16.84375,3.5624 2.20596.431 4.04784.7896 5.625,1.0313s2.1037.5648 5,.3437a10.001,10.001 0 1,0 -1.5-19.9374c2.00603-.1531.651-.016-.46875-.1876s-2.79447-.4746-4.84375-.875c-4.09857-.8004-9.73218-2.0036-16.3125-3.4687-4.39316-.9782-9.31554-2.1077-14.40625-3.2813 5.50033.1359 10.81465.264 15.5625.3438 6.83615.1149 12.69242.1673 17.1875.125 2.24754-.021 4.15642-.076 5.75-.1562s2.1758.1421 4.96875-.6563a10.001,10.001 0 0,0 -4.84375-19.4063c.0382-.02-.43165.057-1.15625.094-1.13138.057-2.81835.1054-4.90625.125-4.1758.039-9.947-.012-16.6875-.125-13.481-.2267-30.9076-.7323-48.125-1.2812-18.8494-.601-35.96353-1.2011-48.9375-1.6876 49.12265-88.33717-5.125-171.37495-5.125-171.37495a10.001,10.001 0 0,0 -8.40625-4.5625z" fill="url(#linearGradient6394)"/>
<path d="m118.125,898.47825-1.69643,4.19643c0,0 6.42857,5.66965 19.19643,4.41965l2.76786-5.80358z" fill="#d66c0b"/>
<path d="m255.44643,900.44253 1.69643,4.19643c0,0-6.42857,5.66965-19.19643,4.41965l-2.76786-5.80358z" fill="#d66c0b"/>
</g>
<path d="m-67.14286,586.57056c0,0-2.85714-167.52983 160-167.52983 125.05113,0 127.96967,120.45917 129.05332,189.33587 31.2794,135.03356 207.7804,18.52569 228.08954-13.63385 0,0 45.71429,311.90515-258.57143,311.90515s-258.57143-320.07734-258.57143-320.07734z" fill="url(#linearGradient6396)"/>
<path d="m174.54415,814.26943c0,0 108.98571,70.04873 187.76282-22.63396 0,0-122.93204,5.88277-137.41726-64.11996z" fill="#2c89a0"/>
<path d="m171.72814,813.75919c0,0 116.66344,64.69589 187.3165-34.31957 0,0-115.01063,5.63366-135.36662-62.89252z" fill="url(#linearGradient6402)"/>
<path d="m123.23861,534.40649c0,12.69204-10.28893,22.98097-22.98097,22.98097s-22.98097-10.28893-22.98097-22.98097 10.28893-22.98097 22.98097-22.98097 22.98097,10.28893 22.98097,22.98097z" fill="url(#linearGradient6404)" transform="matrix(1.6477,0,0,1.6477,-64.93734,-346.13758)"/>
<path d="m123.23861,534.40649c0,12.69204-10.28893,22.98097-22.98097,22.98097s-22.98097-10.28893-22.98097-22.98097 10.28893-22.98097 22.98097-22.98097 22.98097,10.28893 22.98097,22.98097z" transform="matrix(1.321,0,0,1.321,-32.18316,-171.54695)"/>
<path d="m123.23861,534.40649c0,12.69204-10.28893,22.98097-22.98097,22.98097s-22.98097-10.28893-22.98097-22.98097 10.28893-22.98097 22.98097-22.98097 22.98097,10.28893 22.98097,22.98097z" fill="#fff" transform="matrix(.52556,0,0,.52556,54.74759,239.18041)"/>
<path d="m123.23861,534.40649c0,12.69204-10.28893,22.98097-22.98097,22.98097s-22.98097-10.28893-22.98097-22.98097 10.28893-22.98097 22.98097-22.98097 22.98097,10.28893 22.98097,22.98097z" fill="#fff" transform="matrix(.3409,0,0,.3409,85.99158,350.59283)"/>
<path d="m24.79561,388.62415c0,0 48.21606,18.04405 55.61116,48.80767 0,0-1.47902-39.93354-26.62236-60.63982s-48.51186,2.07062-28.9888,11.83215z" fill="url(#linearGradient6420)"/>
<path d="m81.94449,385.2664c0,0 10.07172,33.92017-3.73975,50.71749 0,0 21.29147-17.35008 22.23578-39.71718s-21.22736-25.75176-18.49603-11.00031z" fill="url(#linearGradient6408)"/>
</g>
<g transform="translate(680.84282,-157.58379)">
<path d="m34.34519,744.26566c0,0-91.92388-60.60916-173.74624-4.04061l42.42641,10.10152c0,0 50.50763,81.82237 131.31983-6.06091z" fill="url(#linearGradient6424)"/>
<path d="m34.09375,744.28125c0,0-30.55028,5.28887-53.53125,4.53125-22.25111-.73355-54.93076-8.35429-78.53125,1.25l1,.25c0,0 .77734,1.25758 2.28125,3.28125 6.63201-2.68087 20.05002-5.30699 45.9375-1.5 42.93148,6.31345 82.84375-7.8125 82.84375-7.8125z" fill="#803300"/>
</g>
<g transform="matrix(.14411,.04424,-.05863,.191,-134.6192,328.87795)">
<path d="m-10.73287,1234.1897h465.93287a3.40926,3.40926 0 0,1 3.40926,3.40926v116.42008a3.40926,3.40926 0 0,1 -3.40926,3.40926h-465.93287a3.40926,3.40926 0 0,1 -3.40926-3.40926v-116.42008a3.40926,3.40926 0 0,1 3.40926-3.40926" fill="#00222b"/>
<path d="m-105.05587,1691.7887c0,60.8102-39.79894,110.1066-88.89343,110.1066s-88.89342-49.2964-88.89342-110.1066 39.79894-110.1066 88.89342-110.1066 88.89343,49.2964 88.89343,110.1066z" fill="#00222b" transform="matrix(.64623,.76314,-.76314,.64623,1256.8084,700.04877)"/>
<path d="m16.79393,1308.061-31.90625,2.7188c0,0 7.12553,84.198-6.5,175.6562-6.81277,45.7292-18.89847,93.0533-38.875,131.8126s-47.20006,68.5448-85.1875,82.7812l11.21875,29.9375c47.0917-17.6484 80.01171-54.6117 102.40625-98.0625s34.92007-93.8081 42.0625-141.75c14.28485-95.8838 6.78125-183.0937 6.78125-183.0938z" fill="#00222b"/>
<g transform="translate(440.42651,16.16244)">
<path d="m-105.05587,1691.7887c0,60.8102-39.79894,110.1066-88.89343,110.1066s-88.89342-49.2964-88.89342-110.1066 39.79894-110.1066 88.89342-110.1066 88.89343,49.2964 88.89343,110.1066z" fill="#00222b" transform="matrix(.64623,.76314,-.76314,.64623,1256.8084,700.04877)"/>
<path d="m16.79393,1308.061-31.90625,2.7188c0,0 7.12553,84.198-6.5,175.6562-6.81277,45.7292-18.89847,93.0533-38.875,131.8126s-47.20006,68.5448-85.1875,82.7812l11.21875,29.9375c47.0917-17.6484 80.01171-54.6117 102.40625-98.0625s34.92007-93.8081 42.0625-141.75c14.28485-95.8838 6.78125-183.0937 6.78125-183.0938z" fill="#00222b"/>
</g>
</g>
</g>
</svg>
