<?xml version="1.0" encoding="utf8" standalone="no"?>
<svg viewBox="0 0 53.104 45.619991" xmlns="http://www.w3.org/2000/svg">
<defs>
<linearGradient gradientUnits="userSpaceOnUse" id="linearGradient6482" x2="0" y1="233.68151" y2="250.69548">
<stop offset="0" stop-color="#006f9d"/>
<stop offset="1" stop-color="#7bcefb"/>
</linearGradient>
<linearGradient gradientTransform="matrix(-.867067,0,0,-.594693,497.8279,258.6143)" gradientUnits="userSpaceOnUse" id="linearGradient6484" x1="-53.42761" x2="-31.5861" y1="109.7897" y2="95.68434">
<stop offset="0" stop-color="#83cb46"/>
<stop offset="1" stop-color="#fff"/>
</linearGradient>
<linearGradient gradientTransform="scale(-1.20748,-.82817)" gradientUnits="userSpaceOnUse" id="linearGradient6486" x1="-451.30542" x2="-434.33966" y1="-228.70355" y2="-246.57704">
<stop offset="0" stop-color="#80ff26"/>
<stop offset="1" stop-color="#2c9600"/>
</linearGradient>
</defs>
<g transform="translate(-497.13425,-164.36795)">
<g transform="translate(6.70307,-72)">
<path d="m492.30618,237.85928h44.92123a1,1 0 0,1 1,1v34.07683a1,1 0 0,1 -1,1h-44.92123a1,1 0 0,1 -1-1v-34.07683a1,1 0 0,1 1-1" fill="#e5e7f6" stroke="#0f2965" stroke-width="1.75"/>
<g fill="#2dabdc" transform="translate(639.8727,179.8918)">
<path d="m-135.82384,70.90651h16.37932a1,1 0 0,1 1,1v.45058a1,1 0 0,1 -1,1h-16.37932a1,1 0 0,1 -1-1v-.45058a1,1 0 0,1 1-1"/>
<path d="m141.09126,70.90651h2.08429a1,1 0 0,1 1,1v.45058a1,1 0 0,1 -1,1h-2.08429a1,1 0 0,1 -1-1v-.45058a1,1 0 0,1 1-1" transform="scale(-1,1)"/>
</g>
<g fill="#2dabdc" transform="translate(639.8727,184.7589)">
<path d="m-135.82384,70.90651h16.37932a1,1 0 0,1 1,1v.45058a1,1 0 0,1 -1,1h-16.37932a1,1 0 0,1 -1-1v-.45058a1,1 0 0,1 1-1"/>
<path d="m141.09126,70.90651h2.08429a1,1 0 0,1 1,1v.45058a1,1 0 0,1 -1,1h-2.08429a1,1 0 0,1 -1-1v-.45058a1,1 0 0,1 1-1" transform="scale(-1,1)"/>
</g>
<g fill="#2dabdc" transform="translate(639.8727,189.6261)">
<path d="m-135.82384,70.90651h16.37932a1,1 0 0,1 1,1v.45058a1,1 0 0,1 -1,1h-16.37932a1,1 0 0,1 -1-1v-.45058a1,1 0 0,1 1-1"/>
<path d="m141.09126,70.90651h2.08429a1,1 0 0,1 1,1v.45058a1,1 0 0,1 -1,1h-2.08429a1,1 0 0,1 -1-1v-.45058a1,1 0 0,1 1-1" transform="scale(-1,1)"/>
</g>
<g fill="#2dabdc" transform="translate(639.8727,194.4931)">
<path d="m-135.82384,70.90651h16.37932a1,1 0 0,1 1,1v.45058a1,1 0 0,1 -1,1h-16.37932a1,1 0 0,1 -1-1v-.45058a1,1 0 0,1 1-1"/>
<path d="m141.09126,70.90651h2.08429a1,1 0 0,1 1,1v.45058a1,1 0 0,1 -1,1h-2.08429a1,1 0 0,1 -1-1v-.45058a1,1 0 0,1 1-1" transform="scale(-1,1)"/>
</g>
<path d="m492.30618,237.24295h44.92123a1,1 0 0,1 1,1v5.74185a1,1 0 0,1 -1,1h-44.92123a1,1 0 0,1 -1-1v-5.74185a1,1 0 0,1 1-1" fill="url(#linearGradient6482)" stroke="#0f2965" stroke-width="1.75"/>
<g fill="#2dabdc" transform="translate(639.8727,184.7589)">
<path d="m-135.82384,70.90651h16.37932a1,1 0 0,1 1,1v.45058a1,1 0 0,1 -1,1h-16.37932a1,1 0 0,1 -1-1v-.45058a1,1 0 0,1 1-1"/>
<path d="m141.09126,70.90651h2.08429a1,1 0 0,1 1,1v.45058a1,1 0 0,1 -1,1h-2.08429a1,1 0 0,1 -1-1v-.45058a1,1 0 0,1 1-1" transform="scale(-1,1)"/>
</g>
</g>
<path d="m531.84607,206.67544v-3.85967h15.07968v-11.04048h-15.07968v-3.88211l-10.00824,9.40235 10.00824,9.37991z" fill="url(#linearGradient6484)" stroke="#fff" stroke-linecap="round" stroke-linejoin="round" stroke-width="6.625"/>
<path d="m531.84607,206.67544v-3.85967h15.07968v-11.04048h-15.07968v-3.88211l-10.00824,9.40235 10.00824,9.37991z" fill="url(#linearGradient6486)" stroke="#116b1c" stroke-linejoin="round" stroke-width="1.75"/>
</g>
</svg>
