<?xml version="1.0" encoding="UTF-8" standalone="no"?>
<svg width="300.72" xmlns="http://www.w3.org/2000/svg" xmlns:xlink="http://www.w3.org/1999/xlink" height="312.35">
 <g id="g5820" transform="matrix(.30494 0 0 .32393 426.05 -80.109)">
  <g id="g5740" transform="matrix(.98481 -.17365 .17365 .98481 -369.7 46.38)">
   <rect id="rect5742" rx="12" ry="12" height="789.13" width="579.83" stroke="#000" y="149.84" x="-1012.9" stroke-width="4" fill="#fff"/>
   <g id="g5744">
    <path id="path5746" d="m-961.96 427.1v-29.504 29.504z"/>
    <path id="path5748" d="m-964.12 691.22v-29.504 29.504z"/>
   </g>
   <g id="g5750" stroke-width="2.375" stroke="#000" fill="none">
    <path id="path5752" d="m-488.83 767.44h-428.1"/>
    <path id="path5754" d="m-488.83 718.25h-428.1"/>
    <path id="path5756" d="m-488.83 669.06h-428.1"/>
    <path id="path5758" d="m-488.83 619.87h-428.1"/>
    <path id="path5760" d="m-488.83 570.68h-428.1"/>
    <path id="path5762" d="m-488.83 521.49h-428.1"/>
    <path id="path5764" d="m-488.83 472.3h-428.1"/>
    <path id="path5766" d="m-488.83 423.11h-428.1"/>
    <path id="path5768" d="m-488.83 373.92h-428.1"/>
    <path id="path5770" d="m-488.83 324.73h-428.1"/>
    <path id="path5772" d="m-488.83 275.54h-428.1"/>
    <path id="path5774" d="m-488.83 226.35h-428.1"/>
    <path id="path5776" d="m-488.83 865.82h-428.1"/>
    <path id="path5778" d="m-488.83 816.63h-428.1"/>
   </g>
  </g>
  <g id="g5719">
   <rect id="rect5329" rx="12" ry="12" height="789.13" width="579.83" stroke="#000" y="313.49" x="-1197" stroke-width="4" fill="#fff"/>
   <g id="g5621">
    <path id="path5429" d="m-1146.1 590.75v-29.504 29.504z"/>
    <path id="path5437" d="m-1148.3 854.86v-29.504 29.504z"/>
   </g>
   <g id="g5605" stroke-width="2.375" stroke="#000" fill="none">
    <path id="path5403" d="m-673.02 931.09h-428.1"/>
    <path id="path5405" d="m-673.02 881.9h-428.1"/>
    <path id="path5407" d="m-673.02 832.71h-428.1"/>
    <path id="path5409" d="m-673.02 783.52h-428.1"/>
    <path id="path5411" d="m-673.02 734.33h-428.1"/>
    <path id="path5413" d="m-673.02 685.14h-428.1"/>
    <path id="path5415" d="m-673.02 635.95h-428.1"/>
    <path id="path5417" d="m-673.02 586.76h-428.1"/>
    <path id="path5419" d="m-673.02 537.57h-428.1"/>
    <path id="path5421" d="m-673.02 488.38h-428.1"/>
    <path id="path5423" d="m-673.02 439.19h-428.1"/>
    <path id="path5425" d="m-673.02 390h-428.1"/>
    <path id="path5601" d="m-673.02 1029.5h-428.1"/>
    <path id="path5603" d="m-673.02 980.28h-428.1"/>
   </g>
  </g>
  <g id="g5780" transform="matrix(.98481 .17365 -.17365 .98481 364.07 18.774)">
   <rect id="rect5782" rx="12" ry="12" height="789.13" width="579.83" stroke="#000" y="506.63" x="-1350" stroke-width="4" fill="#fff"/>
   <g id="g5784">
    <path id="path5786" d="m-1299.1 783.89v-29.504 29.504z"/>
    <path id="path5788" d="m-1301.3 1048v-29.504 29.504z"/>
   </g>
   <g id="g5790" stroke-width="2.375" stroke="#000" fill="none">
    <path id="path5792" d="m-825.99 1124.2h-428.1"/>
    <path id="path5794" d="m-825.99 1075h-428.1"/>
    <path id="path5796" d="m-825.99 1025.9h-428.1"/>
    <path id="path5798" d="m-825.99 976.66h-428.1"/>
    <path id="path5800" d="m-825.99 927.47h-428.1"/>
    <path id="path5802" d="m-825.99 878.28h-428.1"/>
    <path id="path5804" d="m-825.99 829.09h-428.1"/>
    <path id="path5806" d="m-825.99 779.9h-428.1"/>
    <path id="path5808" d="m-825.99 730.71h-428.1"/>
    <path id="path5810" d="m-825.99 681.52h-428.1"/>
    <path id="path5812" d="m-825.99 632.33h-428.1"/>
    <path id="path5814" d="m-825.99 583.14h-428.1"/>
    <path id="path5816" d="m-825.99 1222.6h-428.1"/>
    <path id="path5818" d="m-825.99 1173.4h-428.1"/>
   </g>
  </g>
 </g>
</svg>
