<?xml version="1.0" encoding="utf8" standalone="no"?>
<svg viewBox="0 0 296.55499 300" xmlns="http://www.w3.org/2000/svg">
<g transform="translate(-.636,-59.22092)">
<path d="m32.90498,59.22092h190.17323a32.26899,32.26899 0 0,1 32.26899,32.26899v235.46203a32.26899,32.26899 0 0,1 -32.26899,32.26899h-190.17323a32.26899,32.26899 0 0,1 -32.26899-32.26899v-235.46203a32.26899,32.26899 0 0,1 32.26899-32.26899" fill="#fff" stroke="#000"/>
<g transform="matrix(4.03362,0,0,4.03362,-4505.1115,-1563.6865)">
<path d="m1123.5796,419.35076 50.0821.36291" fill="none" stroke="#808080" stroke-linecap="round" stroke-width="2"/>
<path d="m1123.5796,459.35076 11.5225.36291" fill="none" stroke="#808080" stroke-linecap="round" stroke-width="2"/>
<path d="m1123.5796,439.35076 50.0821.36291" fill="none" stroke="#808080" stroke-linecap="round" stroke-width="2"/>
</g>
<g transform="matrix(2.8522,2.8522,-2.8522,2.8522,-1939.13,-4787.0746)">
<path d="m737.3125,213.03125h-17.4375l8.71875,16 8.71875-16z" fill="#d38d5f" transform="translate(515.33615,307.49383)"/>
<path d="m737.3125,168.03125h-17.4375v45h17.4375v-45z" fill="#fc0" transform="translate(515.33615,307.49383)"/>
<path d="m728.59375,157.25c-6.2393,0-8.71875,4-8.71875,4v6.78125h17.4375v-6.78125c0,0-2.47935-4-8.71875-4z" fill="#800000" transform="translate(515.33615,307.49383)"/>
<path d="m730.86791,224.91218h-4.48914l2.21498,4.11907z" fill="#4d4d4d" transform="translate(515.33615,307.49383)"/>
<path d="m1238.4862,475.52509h5v45h-5z"/>
<path d="m1248.4862,475.52509h2v45h-2z"/>
<path d="m1235.2112,469.51303h17.43747v1h-17.43747z" fill="#fff"/>
<path d="m1237.2112,520.52508h4.4426l2.5503,11.88093h-1.357z" fill="#deaa87"/>
</g>
</g>
</svg>
