<?xml version="1.0" encoding="utf8" standalone="no"?>
<svg viewBox="0 0 159.60748 159.60748" xmlns="http://www.w3.org/2000/svg" xmlns:xlink="http://www.w3.org/1999/xlink">
<defs>
<linearGradient id="linearGradient5190">
<stop offset="0" stop-color="#fff"/>
<stop offset="1" stop-color="#f00"/>
</linearGradient>
<linearGradient gradientUnits="userSpaceOnUse" id="linearGradient2109" x1="210.17181" x2="246.42752" xlink:href="#linearGradient5190" y1="529.36239" y2="611.84715"/>
<linearGradient gradientTransform="matrix(-.30163,8.082223e-2,-8.294933e-2,-.30957,402.8575,730.1118)" gradientUnits="userSpaceOnUse" id="linearGradient2107" x1="249.48328" x2="272.02597" xlink:href="#linearGradient5190" y1="262.87494" y2="427.54285"/>
</defs>
<g transform="matrix(.9,0,0,.9,-141.1827,-460.81433)">
<path d="m634.28571,559.50507a250,250 0 1,1 -500,0 250,250 0 1,1 500,0z" fill="#f00" fill-rule="evenodd" stroke="#cb0000" stroke-width="20.12788" transform="matrix(.30686,0,0,.30686,127.6178,428.9959)"/>
<path d="m264.19015,668.93136c19.04664-5.10352 34.17323-17.6582 43.2287-33.82394 14.70769-34.81809-40.16681,46.69991-85.49128,31.89063 13.17603,4.83221 27.81329,5.80499 42.26258,1.93331z" fill="url(#linearGradient2107)" fill-rule="evenodd"/>
<path d="m245.65747,529.36222c-39.43704,0-71.4422,32.84735-71.4422,73.32216 0,5.47391.60745,10.8018 1.7175,15.93437 39.20511-75.4678 81.44559-27.96293 135.90705-43.54661-10.63543-26.79776-36.26433-45.70992-66.18235-45.70992z" fill="url(#linearGradient2109)" fill-rule="evenodd"/>
<path d="m267.42338,640.03739-21.67907-21.67908-21.88299,21.88298-17.87556-17.87556 21.88298-21.88298-21.67908-21.67908 17.39979-17.39979 21.67908,21.67908 21.95095-21.95095 17.87556,17.87556-21.95095,21.95096 21.67908,21.67907-17.39979,17.39979" fill="#fff" opacity=".73529"/>
<path d="m267.29788,637.00578-21.5875-21.5875-21.75749,21.75749-14.90161-14.90162 21.75749-21.75748-21.5875-21.5875 14.50499-14.50499 21.5875,21.5875 21.81414-21.81414 14.90161,14.90161-21.81414,21.81414 21.5875,21.5875-14.50499,14.50499" fill="#fff"/>
</g>
</svg>
