<?xml version="1.0" encoding="utf8" standalone="no"?>
<svg viewBox="0 0 653.68652 694.55585" xmlns="http://www.w3.org/2000/svg" xmlns:xlink="http://www.w3.org/1999/xlink">
<defs>
<clipPath id="clipPathM">
<path d="m922,1227.3622c0,85.56-62.61662,155-139.76923,155s-139.76923-69.44-139.76923-155 62.61661-155 139.76923-155 139.76923,69.44 139.76923,155z"/>
</clipPath>
<filter id="filter3818">
<feGaussianBlur stdDeviation="4.53559"/>
</filter>
<filter id="filter3848">
<feGaussianBlur stdDeviation="5.45985"/>
</filter>
<filter id="filter5340">
<feGaussianBlur stdDeviation="5.33333"/>
</filter>
<filter height="2" id="filterg" width="2" x="-.5" y="-.5">
<feGaussianBlur stdDeviation="5"/>
</filter>
<linearGradient gradientUnits="userSpaceOnUse" id="linearGradient5353" x1="548.57457" x2="552.16222" y1="674.75338" y2="722.55101">
<stop offset="0" stop-color="#fffeff"/>
<stop offset="1" stop-color="#fffeff" stop-opacity="0"/>
</linearGradient>
<linearGradient gradientUnits="userSpaceOnUse" id="linearGradient5356" x2="0" y1="732.83397" y2="706.46407">
<stop offset="0" stop-color="#555753"/>
<stop offset="1" stop-color="#555753" stop-opacity=".01"/>
</linearGradient>
<linearGradient gradientUnits="userSpaceOnUse" id="linearGradient5394" x2="0" y1="643.65504" y2="845.35053">
<stop offset="0" stop-color="#f5f4f3"/>
<stop offset="1" stop-color="#eeeeec" stop-opacity="0"/>
</linearGradient>
<linearGradient gradientUnits="userSpaceOnUse" id="linearGradient5399" x1="245.50607" x2="258.11204">
<stop offset="0" stop-color="#fff"/>
<stop offset="1" stop-color="#fff" stop-opacity="0"/>
</linearGradient>
<linearGradient gradientUnits="userSpaceOnUse" id="linearGradient5418" x1="258.57604" x2="264.05001" y1="961.36305" y2="858.13307">
<stop offset="0" stop-color="#888a85" stop-opacity=".5"/>
<stop offset="1" stop-color="#888a85" stop-opacity="0"/>
</linearGradient>
<linearGradient gradientUnits="userSpaceOnUse" id="linearGradient5430" x1="255.05072" x2="259.68665" y1="606.04758" y2="682.22446">
<stop offset="0" stop-color="#e2e4e0"/>
<stop offset="1" stop-color="#e2e4e0" stop-opacity="0"/>
</linearGradient>
<linearGradient gradientUnits="userSpaceOnUse" id="linearGradient5706" x1="390" x2="424" y1="1112.5066" y2="1270.6511">
<stop offset="0" stop-color="#eeeeec"/>
<stop offset="1" stop-color="#eeeeec" stop-opacity="0"/>
</linearGradient>
<pattern height="1.73205" id="Packedcircles" patternTransform="matrix(10,0,0,10,0,0)" patternUnits="userSpaceOnUse" width="1">
<path d="m.5.5a.5,.5 0 1,0 -1,0 .5,.5 0 1,0 1,0"/>
<path d="m1.5.5a.5,.5 0 1,0 -1,0 .5,.5 0 1,0 1,0"/>
<path d="m1,1.36603a.5,.5 0 1,0 -1,0 .5,.5 0 1,0 1,0"/>
<path d="m1-.36603a.5,.5 0 1,0 -1,0 .5,.5 0 1,0 1,0"/>
</pattern>
<pattern id="pattern5381" patternTransform="matrix(10,0,0,10,10.5858,272.68965)" xlink:href="#pattern5306"/>
<pattern id="pattern5306" patternTransform="matrix(14.09617,0,0,14.09617,-118.09716,-491.94561)" xlink:href="#Packedcircles"/>
</defs>
<g transform="translate(-10.5858,-272.68965)">
<path d="m644,766.0625-862.61131,90.80356 368.61131,109.50894 494-109.125v-91.1875z" fill="#888a85" fill-rule="evenodd" filter="url(#filter5340)" transform="matrix(.7404,0,0,.7404,172.44548,251.09749)"/>
<path d="m245.48796,279.62258c0,0 2.89741-15.59909 13.04066,0l3.26017,324.60368h-18.90896l2.60813-324.60368z" fill="#babdb6"/>
<path d="m247.24483,279.62258c0,0 1.93161-15.59909 8.69377,0l2.17344,324.60368h-12.60596l1.73875-324.60368z" fill="url(#linearGradient5399)"/>
<path d="m288.04653,564.75258v402.49291l359.87741-74.88546c4.98836,0 8.99489-4.00651 8.99489-8.99488v-228.71297c0-4.98836-4.00653-9.0113-8.99489-9.0113l-359.87741-80.8883z" fill="#e0e2dd"/>
<path d="m290.94009,564.60955-67.56011,45.38477c-.10516.72405-.14773,1.46179-.14773,2.21589v316.59365c0,2.36564.53654,4.58992 1.49368,6.58201l56.49706,30.64498c8.29429-.13337 14.93676-6.83933 14.93676-15.16655l2.10099-375.4215c0-6.43595-2.64566-10.5799-7.32065-10.83325z" fill="#babdb6"/>
<path d="m298.01771,581.56737-2.6177,283.77988c0,0 88.39882-51.02072 172.58522-63.1799 151.07245-17.27722 190.57745,239.04745 194.18609,8.7135l2.10099-137.31971c0-4.98836-4.00652-9.0113-8.99488-9.0113l-357.25972-82.98247z" fill="url(#linearGradient5394)"/>
<path d="m127.34617,131.31923-2.5,11.71875 681.90383,155.18077 2.5-11.71875-681.90383-155.18077z" fill="#fdffff" fill-rule="evenodd" filter="url(#filter3848)" transform="matrix(.52525,0,0,.52525,234.47585,509.49127)"/>
<g transform="matrix(.42153,0,0,.42153,224.95019,174.72737)">
<path d="m279.09375,1110.7812c-34.3487,28.2491-56.625,73.5626-56.625,124.5938 0,85.56 62.59738,155 139.75,155 40.82152,0 77.5951-19.4561 103.15625-50.4375-23.24103,19.1139-52.02038,30.4375-83.15625,30.4375-77.15262,0-139.75-69.44-139.75-155 0-40.2901 13.87562-77.0204 36.625-104.5938z" fill="#babdb6" filter="url(#filter3818)" transform="matrix(.98906,.14751,-.14751,.98906,186.23847,-39.05171)"/>
<path d="m512,1220.3622c0,71.76-48.384,130-108,130s-108-58.24-108-130 48.384-130 108-130 108,58.24 108,130z" fill="#d3d7cf"/>
<path d="m382.21875,1068.375c-77.15262,0-139.75001,69.44-139.75,155s62.59738,155 139.75,155 139.78125-69.44 139.78125-155-62.62864-155-139.78125-155zm21.78125,22c59.616,0 108,58.24 108,130s-48.384,130-108,130-108-58.24-108-130 48.384-130 108-130z" fill="#babdb6"/>
<g clip-path="url(#clipPathM)" transform="translate(-396,-6)">
<path d="m922,1227.3622c0,85.56-62.61662,155-139.76923,155m0-310c77.15261,0 139.76923,69.44 139.76923,155" fill="none" filter="url(#filterg)" stroke="#fff" stroke-width="10"/>
<path d="m782.23077,1382.3622c-77.15262,0-139.76923-69.44-139.76923-155c0-85.56 62.61661-155 139.76923-155" fill="none" filter="url(#filterg)" stroke="#000" stroke-width="10"/>
</g>
<path d="m512,1220.3622c0,71.76-57.21843-96.9765-112,0-35.12094,62.1725-104,71.76-104,0s48.384-130 108-130 108,58.24 108,130z" fill="url(#linearGradient5706)" opacity=".57394"/>
</g>
<path d="m604.25092,789.48164-78.7873,1.39519v24.71952l78.7873-4.0871v-22.02761zm-112.40321,1.9861-103.99924,1.85478v29.41393l103.99924-5.40022v-25.86849z" fill="url(#pattern5381)"/>
<path d="m604.25092,816.08877-78.7873,4.71082v24.67027l78.7873-7.43555v-21.94554zm-112.40321,6.72975-103.99924,6.22091v29.41393l103.99924-9.81559v-25.81925z" fill="url(#pattern5381)"/>
<path d="m604.25092,842.15424-78.7873,8.22342v24.55538l78.7873-11.01381v-21.76499zm-112.40321,11.73602-103.99924,10.86608v29.41393l103.99924-14.54283v-25.73718z" fill="url(#pattern5381)"/>
<path d="m485.54474,792.26532h5.77774v25.21194h-5.77774z" fill="#888a85"/>
<path d="m486.06998,823.25494h5.77774v24.68669h-5.77774z" fill="#888a85"/>
<path d="m486.59521,854.7699h5.77774v24.68669h-5.77774z" fill="#888a85"/>
<path d="m600.57416,789.63904h3.67674v21.5352h-3.67674z" fill="#888a85"/>
<path d="m600.04889,815.90149h3.67674v21.5352h-3.67674z" fill="#888a85"/>
<path d="m600.57416,842.68915h3.67674v21.00995h-3.67674z" fill="#888a85"/>
<path d="m477.14075,654.65014 157.5746,26.26243v59.87835l-159.6756-9.45448 2.101-76.6863z" fill="#888a85"/>
<path d="m558.77185,672.62511 5.86786,1.85703 1.26806,62.10679h-7.35348l.21756-63.96382z" fill="#a40000"/>
<path d="m612.43251,714.40436a1.96968,3.08018 0 0,1 1.96968,3.08018v13.74236a1.96968,3.08018 0 0,1 -1.96968,3.08018 1.96968,3.08018 0 0,1 -1.96968-3.08018v-13.74236a1.96968,3.08018 0 0,1 1.96968-3.08018" fill="#e2e4e0"/>
<path d="m593.82754,712.04071a1.99595,3.2834 0 0,1 1.99595,3.2834v14.64903a1.99595,3.2834 0 0,1 -1.99595,3.2834 1.99595,3.2834 0 0,1 -1.99595-3.2834v-14.64903a1.99595,3.2834 0 0,1 1.99595-3.2834" fill="#e2e4e0"/>
<path d="m574.30731,710.64581a2.02221,3.20212 0 0,1 2.02221,3.20212v14.28636a2.02221,3.20212 0 0,1 -2.02221,3.20212 2.02221,3.20212 0 0,1 -2.02221-3.20212v-14.28636a2.02221,3.20212 0 0,1 2.02221-3.20212" fill="#e2e4e0"/>
<path d="m553.8719,708.10138a2.04847,3.40534 0 0,1 2.04847,3.40534v15.19304a2.04847,3.40534 0 0,1 -2.04847,3.40534 2.04847,3.40534 0 0,1 -2.04847-3.40534v-15.19304a2.04847,3.40534 0 0,1 2.04847-3.40534" fill="#e2e4e0"/>
<path d="m532.52126,705.73773a2.07473,3.60856 0 0,1 2.07473,3.60856v16.09972a2.07473,3.60856 0 0,1 -2.07473,3.60856 2.07473,3.60856 0 0,1 -2.07473-3.60856v-16.09972a2.07473,3.60856 0 0,1 2.07473-3.60856" fill="#e2e4e0"/>
<path d="m510.78062,703.89941a2.10099,3.6492 0 0,1 2.10099,3.6492v16.28106a2.10099,3.6492 0 0,1 -2.10099,3.6492 2.10099,3.6492 0 0,1 -2.10099-3.6492v-16.28106a2.10099,3.6492 0 0,1 2.10099-3.6492" fill="#e2e4e0"/>
<path d="m487.0943,701.0105a2.14728,3.85242 0 0,1 2.14728,3.85242v17.18774a2.14728,3.85242 0 0,1 -2.14728,3.85242 2.14728,3.85242 0 0,1 -2.14728-3.85242v-17.18774a2.14728,3.85242 0 0,1 2.14728-3.85242" fill="#e2e4e0"/>
<path d="m628.29181,716.50537a1.94342,2.91761 0 0,1 1.94342,2.91761v13.01701a1.94342,2.91761 0 0,1 -1.94342,2.91761 1.94342,2.91761 0 0,1 -1.94342-2.91761v-13.01701a1.94342,2.91761 0 0,1 1.94342-2.91761" fill="#e2e4e0"/>
<path d="m558.77185,672.62511 5.86786,1.85703 1.26806,62.10679h-7.35348l.21756-63.96382z" fill="url(#linearGradient5356)"/>
<path d="m479.72435,656.75113 154.37666,25.72944v24.70027c0,0-12.12401-22.88653-78.21751-3.08753-34.23838,10.25647-78.21751-6.17507-78.21751-6.17507l2.05836-41.16711z" fill="url(#linearGradient5353)" opacity=".55282"/>
<path d="m116.07843,849.74892-2.5,11.71875 680.44365-136.15639 2.5-11.7188-680.44365,136.15644z" fill="#888a85" fill-rule="evenodd" filter="url(#filter3848)" transform="matrix(.52525,0,0,.52525,234.47585,509.49127)"/>
<path d="m253.4752,881.74232c-28.11375,13.55078-26.3739-19.56393-27.33353-4.71651-.99377,15.37558-.63506,47.49449-.67764,55.91469l52.3998,28.42255c7.69278-.1237 13.85352-6.34333 13.85352-14.06665-2.52495-61.06135 2.0427-111.79225-38.24215-65.55408z" fill="url(#linearGradient5418)"/>
<path d="m256.43679,665.7618c-28.11374-13.55078-26.3739,19.56393-27.33352,4.71651-.99377-15.37558-.26486-50.82629-.30744-59.24649l49.8084-32.49474c7.69278.1237 12.37272,4.86253 12.37272,12.58585-2.52495,61.06135 5.74469,120.67704-34.54016,74.43887z" fill="url(#linearGradient5430)" opacity=".5"/>
</g>
</svg>
